<?xml version="1.0" encoding="UTF-8"?>
<svg id="Layer_1" xmlns="http://www.w3.org/2000/svg" version="1.1" viewBox="0 0 180 180">
  <!-- Generator: Adobe Illustrator 29.5.1, SVG Export Plug-In . SVG Version: 2.1.0 Build 141)  -->
  <defs>
    <style>
      .st0 {
        fill: #c69b3c;
      }

      .st1 {
        fill: #fff;
      }

      .st2 {
        font-family: Impact, Impact;
        font-size: 22.2px;
      }

      .st3 {
        fill: #f3ae23;
      }

      .st4 {
        display: none;
      }

      .st5 {
        fill-rule: evenodd;
      }
    </style>
  </defs>
  <rect class="st3" width="180" height="180" rx="8.5" ry="8.5"/>
  <g class="st4">
    <circle class="st1" cx="90" cy="90" r="55"/>
    <g class="st4">
      <g>
        <path class="st5" d="M53.3,85.5h16.7c.7,0,1.3.3,1.8.8h0c.5.5.8,1.1.8,1.8v16.2c0,.7-.3,1.3-.8,1.8h0c-.5.5-1.1.8-1.8.8h-16.7c-.7,0-1.4-.3-1.8-.8h0c-.5-.5-.8-1.1-.8-1.8v-16.2c0-.7.3-1.4.8-1.8h0c.5-.5,1.1-.8,1.8-.8h0ZM69.9,95.4v1.4h0c0,0,0,0,0,0h-2.4s0,0,0,0h0c0,0,0-1.4,0-1.4h0c0,0,0,0,0,0h2.4s0,0,0,0h0ZM58.4,101.2c.1,0,.3.1.4.1.3,0,.5,0,.6-.3l2.6-3.8s0,0,.1,0c.9,0,1.5-.7,1.5-1.6s-.6-1.5-1.5-1.5l-.9-1.9c-.2-.4-.7-.5-1-.3-.4.2-.5.6-.3,1l.9,1.8c-.2.3-.3.6-.3.9s0,.5.2.7l-2.6,3.7c-.3.4-.2.8.2,1.1h0ZM60.7,87.4h1.4v2.5h0c0,0,0,0,0,0h-1.5v-2.5h0c0,0,.1,0,.1,0ZM55.2,95.4v1.4h0c0,0,0,0,0,0h-2.4s0,0,0,0h0v-1.4h0c0,0,0,0,0,0h2.4s0,0,0,0h0ZM60.7,101.8h1.4v2.5h0c0,.1,0,.1,0,.1h-1.5v-2.5h0c0-.1.1-.1.1-.1Z"/>
        <g>
          <polygon class="st0" points="61.6 79.2 57.1 84.2 50.6 79.9 50.6 90 72.5 90 72.5 79.9 66 84.2 61.6 79.2"/>
          <path class="st0" d="M67.9,72.6l2.4,3.1-3.8,2.6-2.7-3,2.1-1.7s-3.9-4.7-4.4-5.4c-.5.7-4.4,5.4-4.4,5.4l2.1,1.7-2.7,3-3.8-2.6,2.4-3.1-4.5-4.4v9.1l6.2,4.3,4.7-4.8,4.7,4.8,6.2-4.3v-9.1l-4.5,4.4Z"/>
        </g>
      </g>
      <text class="st2" transform="translate(75.3 86.3)"><tspan x="0" y="0">KINGS</tspan><tspan class="st0"><tspan x="0" y="19.9">TIMER</tspan></tspan></text>
    </g>
    <g>
      <path class="st5" d="M76.1,86.5h27.9c1.2,0,2.2.5,3,1.3h0c.8.8,1.3,1.9,1.3,3.1v27.2c0,1.2-.4,2.2-1.3,3h0c-.8.8-1.8,1.3-3,1.3h-27.9c-1.2,0-2.3-.4-3.1-1.3h0c-.8-.8-1.3-1.8-1.3-3v-27.2c0-1.2.5-2.3,1.3-3.1h0c.8-.8,1.9-1.3,3.1-1.3h0ZM104.1,103.1v2.3h0c0,.1-.1.1-.1.1h-4c0,0-.1,0-.1,0h0c0-.1,0-2.4,0-2.4v-.2h4.1c0,0,.2,0,.2,0v.2ZM84.7,112.9c.2.2.5.2.7.2.4,0,.8-.2,1.1-.5l4.4-6.3c0,0,.1,0,.2,0,1.4,0,2.6-1.2,2.6-2.6s-1.1-2.5-2.5-2.6l-1.6-3.1c-.3-.6-1.1-.9-1.7-.6-.6.3-.9,1.1-.6,1.7l1.6,3.1c-.3.4-.4.9-.4,1.5s.1.8.3,1.1l-4.3,6.2c-.4.6-.3,1.4.3,1.8h0ZM88.6,89.7h2.4v4.1h0c0,.1-.1.1-.1.1h-2.5v-4.1h0c0-.1.2-.1.2-.1ZM79.4,103.1v2.3h0c0,.1-.1.1-.1.1h-4c0,0-.2,0-.2,0h0v-2.6h4.1c0,0,.1,0,.1,0v.2ZM88.6,113.8h2.4v4.3h-2.6v-4.3h.2Z"/>
      <g>
        <polygon class="st0" points="90 76 82.5 84.3 71.7 77.2 71.7 94 108.3 94 108.3 77.2 97.5 84.3 90 76"/>
        <path class="st0" d="M100.7,65l4,5.2-6.4,4.4-4.6-5,3.6-2.9s-6.5-7.8-7.3-9c-.8,1.2-7.3,9-7.3,9l3.6,2.9-4.6,5-6.4-4.4,4-5.2-7.6-7.3v15.2l10.4,7.2,7.9-8.1,7.9,8.1,10.4-7.2v-15.2l-7.6,7.3Z"/>
      </g>
    </g>
  </g>
  <g class="st4">
    <circle class="st1" cx="42.8" cy="137.2" r="22"/>
    <circle class="st1" cx="90" cy="90" r="22"/>
    <circle class="st1" cx="137.2" cy="42.8" r="22"/>
    <g>
      <path class="st5" d="M35.4,135.4h14.7c.6,0,1.2.3,1.6.7h0c.4.4.7,1,.7,1.6v14.3c0,.6-.2,1.2-.7,1.6h0c-.4.4-1,.7-1.6.7h-14.7c-.6,0-1.2-.2-1.6-.7h0c-.4-.4-.7-1-.7-1.6v-14.3c0-.6.3-1.2.7-1.6h0c.4-.4,1-.7,1.6-.7h0ZM50.2,144.2v1.2h0c0,0,0,0,0,0h-2.1s0,0,0,0h0c0,0,0-1.3,0-1.3h0c0,0,0,0,0,0h2.1s0,0,0,0h0ZM40,149.3c.1,0,.3.1.4.1.2,0,.4,0,.6-.3l2.3-3.3s0,0,.1,0c.8,0,1.4-.6,1.4-1.4s-.6-1.3-1.3-1.4l-.8-1.6c-.2-.3-.6-.5-.9-.3-.3.2-.5.6-.3.9l.8,1.6c-.1.2-.2.5-.2.8s0,.4.1.6l-2.3,3.3c-.2.3-.1.7.1.9h0ZM42,137.1h1.3v2.2h0c0,0,0,0,0,0h-1.3v-2.2h0c0,0,0,0,0,0ZM37.1,144.2v1.2h0c0,0,0,0,0,0h-2.1s0,0,0,0h0v-1.3h0c0,0,0,0,0,0h2.1s0,0,0,0h0ZM42,149.8h1.3v2.2h0c0,0,0,0,0,0h-1.3v-2.2h0c0,0,0,0,0,0Z"/>
      <g>
        <polygon class="st0" points="42.7 129.9 38.8 134.2 33.1 130.5 33.1 139.4 52.4 139.4 52.4 130.5 46.7 134.2 42.7 129.9"/>
        <path class="st0" d="M48.4,124l2.1,2.8-3.4,2.3-2.4-2.6,1.9-1.5s-3.4-4.1-3.9-4.7c-.4.6-3.9,4.7-3.9,4.7l1.9,1.5-2.4,2.6-3.4-2.3,2.1-2.8-4-3.9v8l5.5,3.8,4.2-4.3,4.2,4.3,5.5-3.8v-8l-4,3.9Z"/>
      </g>
    </g>
    <g>
      <path class="st5" d="M82.7,88.2h14.7c.6,0,1.2.3,1.6.7h0c.4.4.7,1,.7,1.6v14.3c0,.6-.2,1.2-.7,1.6h0c-.4.4-1,.7-1.6.7h-14.7c-.6,0-1.2-.2-1.6-.7h0c-.4-.4-.7-1-.7-1.6v-14.3c0-.6.3-1.2.7-1.6h0c.4-.4,1-.7,1.6-.7h0ZM97.4,96.9v1.2h0c0,0,0,0,0,0h-2.1s0,0,0,0h0c0,0,0-1.3,0-1.3h0c0,0,0,0,0,0h2.1s0,0,0,0h0ZM87.2,102.1c.1,0,.3.1.4.1.2,0,.4,0,.6-.3l2.3-3.3s0,0,.1,0c.8,0,1.4-.6,1.4-1.4s-.6-1.3-1.3-1.4l-.8-1.6c-.2-.3-.6-.5-.9-.3-.3.2-.5.6-.3.9l.8,1.6c-.1.2-.2.5-.2.8s0,.4.1.6l-2.3,3.3c-.2.3-.1.7.1.9h0ZM89.2,89.8h1.3v2.2h0c0,0,0,0,0,0h-1.3v-2.2h0c0,0,0,0,0,0ZM84.4,96.9v1.2h0c0,0,0,0,0,0h-2.1s0,0,0,0h0v-1.3h0c0,0,0,0,0,0h2.1s0,0,0,0h0ZM89.2,102.6h1.3v2.2h0c0,0,0,0,0,0h-1.3v-2.2h0c0,0,0,0,0,0Z"/>
      <g>
        <polygon class="st0" points="90 82.6 86 87 80.3 83.3 80.3 92.1 99.7 92.1 99.7 83.3 94 87 90 82.6"/>
        <path class="st0" d="M95.6,76.8l2.1,2.8-3.4,2.3-2.4-2.6,1.9-1.5s-3.4-4.1-3.9-4.7c-.4.6-3.9,4.7-3.9,4.7l1.9,1.5-2.4,2.6-3.4-2.3,2.1-2.8-4-3.9v8l5.5,3.8,4.2-4.3,4.2,4.3,5.5-3.8v-8l-4,3.9Z"/>
      </g>
    </g>
    <g>
      <path class="st5" d="M129.9,40.9h14.7c.6,0,1.2.3,1.6.7h0c.4.4.7,1,.7,1.6v14.3c0,.6-.2,1.2-.7,1.6h0c-.4.4-1,.7-1.6.7h-14.7c-.6,0-1.2-.2-1.6-.7h0c-.4-.4-.7-1-.7-1.6v-14.3c0-.6.3-1.2.7-1.6h0c.4-.4,1-.7,1.6-.7h0ZM144.7,49.7v1.2h0c0,0,0,0,0,0h-2.1s0,0,0,0h0c0,0,0-1.3,0-1.3h0c0,0,0,0,0,0h2.1s0,0,0,0h0ZM134.5,54.8c.1,0,.3.1.4.1.2,0,.4,0,.6-.3l2.3-3.3s0,0,.1,0c.8,0,1.4-.6,1.4-1.4s-.6-1.3-1.3-1.4l-.8-1.6c-.2-.3-.6-.5-.9-.3-.3.2-.5.6-.3.9l.8,1.6c-.1.2-.2.5-.2.8s0,.4.1.6l-2.3,3.3c-.2.3-.1.7.1.9h0ZM136.5,42.6h1.3v2.2h0c0,0,0,0,0,0h-1.3v-2.2h0c0,0,0,0,0,0ZM131.6,49.7v1.2h0c0,0,0,0,0,0h-2.1s0,0,0,0h0v-1.3h0c0,0,0,0,0,0h2.1s0,0,0,0h0ZM136.5,55.3h1.3v2.2h0c0,0,0,0,0,0h-1.3v-2.2h0c0,0,0,0,0,0Z"/>
      <g>
        <polygon class="st0" points="137.2 35.4 133.3 39.7 127.6 36 127.6 44.9 146.9 44.9 146.9 36 141.2 39.7 137.2 35.4"/>
        <path class="st0" d="M142.9,29.5l2.1,2.8-3.4,2.3-2.4-2.6,1.9-1.5s-3.4-4.1-3.9-4.7c-.4.6-3.9,4.7-3.9,4.7l1.9,1.5-2.4,2.6-3.4-2.3,2.1-2.8-4-3.9v8l5.5,3.8,4.2-4.3,4.2,4.3,5.5-3.8v-8l-4,3.9Z"/>
      </g>
    </g>
  </g>
  <g>
    <circle class="st1" cx="54.3" cy="125.8" r="22"/>
    <circle class="st1" cx="125.8" cy="54.2" r="22"/>
  </g>
  <g>
    <path class="st5" d="M118.4,52.4h14.7c.6,0,1.2.3,1.6.7h0c.4.4.7,1,.7,1.6v14.3c0,.6-.2,1.2-.7,1.6h0c-.4.4-1,.7-1.6.7h-14.7c-.6,0-1.2-.2-1.6-.7h0c-.4-.4-.7-1-.7-1.6v-14.3c0-.6.3-1.2.7-1.6h0c.4-.4,1-.7,1.6-.7h0ZM133.2,61.2v1.2h0c0,0,0,0,0,0h-2.1s0,0,0,0h0c0,0,0-1.3,0-1.3h0c0,0,0,0,0,0h2.1s0,0,0,0h0ZM123,66.3c.1,0,.3.1.4.1.2,0,.4,0,.6-.3l2.3-3.3s0,0,.1,0c.8,0,1.4-.6,1.4-1.4s-.6-1.3-1.3-1.4l-.8-1.6c-.2-.3-.6-.5-.9-.3-.3.2-.5.6-.3.9l.8,1.6c-.1.2-.2.5-.2.8s0,.4.1.6l-2.3,3.3c-.2.3-.1.7.1.9h0ZM125,54.1h1.3v2.2h0c0,0,0,0,0,0h-1.3v-2.2h0c0,0,0,0,0,0ZM120.1,61.2v1.2h0c0,0,0,0,0,0h-2.1s0,0,0,0h0v-1.3h0c0,0,0,0,0,0h2.1s0,0,0,0h0ZM125,66.8h1.3v2.2h0c0,0,0,0,0,0h-1.3v-2.2h0c0,0,0,0,0,0Z"/>
    <g>
      <polygon class="st0" points="125.7 46.9 121.8 51.2 116.1 47.5 116.1 56.4 135.4 56.4 135.4 47.5 129.7 51.2 125.7 46.9"/>
      <path class="st0" d="M131.4,41l2.1,2.8-3.4,2.3-2.4-2.6,1.9-1.5s-3.4-4.1-3.9-4.7c-.4.6-3.9,4.7-3.9,4.7l1.9,1.5-2.4,2.6-3.4-2.3,2.1-2.8-4-3.9v8l5.5,3.8,4.2-4.3,4.2,4.3,5.5-3.8v-8l-4,3.9Z"/>
    </g>
  </g>
  <g>
    <path class="st5" d="M46.9,123.9h14.7c.6,0,1.2.3,1.6.7h0c.4.4.7,1,.7,1.6v14.3c0,.6-.2,1.2-.7,1.6h0c-.4.4-1,.7-1.6.7h-14.7c-.6,0-1.2-.2-1.6-.7h0c-.4-.4-.7-1-.7-1.6v-14.3c0-.6.3-1.2.7-1.6h0c.4-.4,1-.7,1.6-.7h0ZM61.7,132.7v1.2h0c0,0,0,0,0,0h-2.1s0,0,0,0h0c0,0,0-1.3,0-1.3h0c0,0,0,0,0,0h2.1s0,0,0,0h0ZM51.5,137.8c.1,0,.3.1.4.1.2,0,.4,0,.6-.3l2.3-3.3s0,0,.1,0c.8,0,1.4-.6,1.4-1.4s-.6-1.3-1.3-1.4l-.8-1.6c-.2-.3-.6-.5-.9-.3-.3.2-.5.6-.3.9l.8,1.6c-.1.2-.2.5-.2.8s0,.4.1.6l-2.3,3.3c-.2.3-.1.7.1.9h0ZM53.5,125.6h1.3v2.2h0c0,0,0,0,0,0h-1.3v-2.2h0c0,0,0,0,0,0ZM48.6,132.7v1.2h0c0,0,0,0,0,0h-2.1s0,0,0,0h0v-1.3h0c0,0,0,0,0,0h2.1s0,0,0,0h0ZM53.5,138.3h1.3v2.2h0c0,0,0,0,0,0h-1.3v-2.2h0c0,0,0,0,0,0Z"/>
    <g>
      <polygon class="st0" points="54.2 118.4 50.3 122.7 44.6 119 44.6 127.9 63.9 127.9 63.9 119 58.2 122.7 54.2 118.4"/>
      <path class="st0" d="M59.9,112.5l2.1,2.8-3.4,2.3-2.4-2.6,1.9-1.5s-3.4-4.1-3.9-4.7c-.4.6-3.9,4.7-3.9,4.7l1.9,1.5-2.4,2.6-3.4-2.3,2.1-2.8-4-3.9v8l5.5,3.8,4.2-4.3,4.2,4.3,5.5-3.8v-8l-4,3.9Z"/>
    </g>
  </g>
</svg>