<?xml version="1.0" encoding="UTF-8"?>
<svg id="Layer_1" xmlns="http://www.w3.org/2000/svg" version="1.1" viewBox="0 0 180 180">
  <!-- Generator: Adobe Illustrator 29.5.1, SVG Export Plug-In . SVG Version: 2.1.0 Build 141)  -->
  <defs>
    <style>
      .st0 {
        fill: #fff;
      }

      .st1 {
        fill: #f3ae23;
      }

      .st2 {
        fill: #0c0902;
      }

      .st3 {
        display: none;
      }
    </style>
  </defs>
  <rect class="st1" width="180" height="180" rx="8.5" ry="8.5"/>
  <g class="st3">
    <circle class="st0" cx="90" cy="90" r="55"/>
    <g>
      <path d="M118.3,108.1c-.6-7.6-5.3-18.2-5.6-25.5,0-1.4.6-2.5.6-3.8,0-1.7.4-11.7,0-12.1-.2-.2-4.2.2-5.1,0-.5-.4,5.1-6.6,5.1-7v-11l-9.9,11.8-11.5-19.1v14.9c0,.5,5.4,7.7,5.6,9.3-.7.2-5.6-.3-5.6,0v14.1h10.4c.7,0,1.8,3.1,1.4,3.9-5.1-.7-8.1-.3-12.4,2.6-.1.8,2,5.2,2.6,5.3,1.7.4,1.3-2.7,1.4-2.8.4-.4,4.2,1.2,5.3,1.1,1.3-.1,3.2-2.2,4.5-2.8,3.6,3.4-.9,7.2-2,10.7l3.9-1.1c1,3-4.1,16.2-7,15.7-1.1-.2-2.1-2.7-2.8-3.2-.6-.5-7.1-3-7.9-2.9-2.8.2-8.4,3.6-10,6.1.3-2.1-.6-5.5.3-7.3.2-.3,5.2-4.9,5.6-4.9.8,0,3.1,2.1,4.5,2.1s3.7-2.1,4.5-2.1c.9,0,4.1,4.8,5.9,4.9.3-4.1.5-6.5-3.1-9-1.3,3.5-3.7.7-5.1.8-.6,0-1.9,1.5-3.1.9v-11c-1.5-.9-5.7-3.4-7.2-3.6-1.6-.2-4.4,1-6.4.5-.4-.3,1.6-3.9,2-3.9h10.4v-14.1c0-.3-5,.2-5.6,0l5.6-9.3v-14.9l-11.5,19.1-9.9-11.8v11c0,.4,5.6,6.7,5.1,7-.9.2-4.9-.2-5.1,0-.5.5-.2,11.9,0,13.3.1.9.6.7,1.1,1.1l-6.1,29.2,28.4,28.6,28.3-28.6c.2-.7.1-1.4,0-2.1ZM96.4,86.9l4.5-1.1c-1,2.4-2.5,1.2-4.5,1.1ZM79,85.2c.8.4,3.8.4,3.9.6,1.4,1.1-4.3,2.9-3.9-.6ZM73.9,86.9c.6-.5,3.7,2.5,4.9,2.7,1.9.3,3.9-1.1,5.8-1,1,1.1-4.7,9.9-5.3,10-.5,0-2.1-.8-2.6-1.2-.3-.3-3.7-6.5-3.8-6.9-.2-.9,1.3-2.4,1-3.6ZM114.7,108.9l-24.9,24.8c-8.7-7.5-16.4-16.2-24.7-24.2-1.1-2.5.7-5.4.8-7.9.8-.1.8,1,.9,1.6.4,1.6.4,3.4,1.3,4.9,2,3.3,9.1,8.3,11.8,11.5-.6-4.5,5.8-9.6,9.9-9.6s9.9,5.2,10.1,9.6c2.6-3.6,9.1-7.8,11.2-11.3,1.4-2.3.7-5.1,2.6-6.7-.3,2.1,1.7,5.5.9,7.3Z"/>
      <polygon class="st2" points="77.8 52 71.1 49.2 75.9 55.4 77.8 52"/>
      <polygon class="st2" points="108.8 49.2 102 52 104 55.4 108.8 49.2"/>
    </g>
  </g>
  <g>
    <g>
      <circle class="st0" cx="42.8" cy="137.2" r="22"/>
      <g>
        <path d="M45.3,136l1.8-.4c-.4,1-1,.5-1.8.4ZM38.3,135.3c.3.2,1.5.2,1.6.2.6.4-1.7,1.2-1.6-.2ZM36.3,136c.2-.2,1.5,1,2,1.1.8.1,1.5-.5,2.3-.4.4.4-1.9,4-2.1,4-.2,0-.9-.3-1-.5-.1-.1-1.5-2.6-1.5-2.8,0-.4.5-.9.4-1.4ZM54.1,144.5c-.3-3-2.1-7.3-2.2-10.2,0-.6.2-1,.2-1.5,0-.7.2-4.7,0-4.9,0,0-1.7,0-2,0-.2-.1,2-2.6,2-2.8v-4.4l-3.9,4.7-4.6-7.7v6c0,.2,2.2,3.1,2.3,3.7-.3,0-2.3-.1-2.3,0v5.6h4.2c.3,0,.7,1.2.6,1.6-2.1-.3-3.2-.1-5,1,0,.3.8,2.1,1,2.1.7.2.5-1.1.6-1.1.2-.2,1.7.5,2.1.4.5,0,1.3-.9,1.8-1.1,1.4,1.4-.4,2.9-.8,4.3l1.6-.4c.4,1.2-1.6,6.5-2.8,6.3-.4,0-.9-1.1-1.1-1.3-.3-.2-2.8-1.2-3.1-1.2-1.1,0-3.4,1.4-4,2.4.1-.8-.2-2.2.1-2.9,0-.1,2.1-2,2.2-2,.3,0,1.3.8,1.8.8s1.5-.8,1.8-.8c.4,0,1.7,1.9,2.4,2,.1-1.6.2-2.6-1.2-3.6-.5,1.4-1.5.3-2,.3-.2,0-.7.6-1.2.4v-4.4c-.6-.4-2.3-1.3-2.9-1.4-.6,0-1.8.4-2.5.2-.2-.1.6-1.6.8-1.6h4.2v-5.6c0-.1-2,0-2.3,0l2.3-3.7v-6l-4.6,7.7-3.9-4.7v4.4c0,.2,2.2,2.7,2,2.8-.4,0-1.9,0-2,0-.2.2,0,4.8,0,5.3,0,.4.2.3.5.4l-2.4,11.7,11.3,11.4,11.3-11.4c0-.3,0-.5,0-.8ZM52.6,144.8l-9.9,9.9c-3.5-3-6.6-6.5-9.9-9.7-.5-1,.3-2.1.3-3.1.3,0,.3.4.4.6.2.7.1,1.4.5,2,.8,1.3,3.6,3.3,4.7,4.6-.2-1.8,2.3-3.8,3.9-3.8s4,2.1,4.1,3.8c1.1-1.4,3.6-3.1,4.5-4.5.6-.9.3-2,1-2.7-.1.9.7,2.2.3,2.9Z"/>
        <polygon class="st2" points="37.9 122 35.2 120.9 37.1 123.4 37.9 122"/>
        <polygon class="st2" points="50.3 120.9 47.6 122 48.4 123.4 50.3 120.9"/>
      </g>
    </g>
    <g>
      <circle class="st0" cx="90" cy="90" r="22"/>
      <g>
        <path d="M92.6,88.8l1.8-.4c-.4,1-1,.5-1.8.4ZM85.6,88.1c.3.2,1.5.2,1.6.2.6.4-1.7,1.2-1.6-.2ZM83.6,88.8c.2-.2,1.5,1,2,1.1.8.1,1.5-.5,2.3-.4.4.4-1.9,4-2.1,4-.2,0-.9-.3-1-.5-.1-.1-1.5-2.6-1.5-2.8,0-.4.5-.9.4-1.4ZM101.3,97.2c-.3-3-2.1-7.3-2.2-10.2,0-.6.2-1,.2-1.5,0-.7.2-4.7,0-4.9,0,0-1.7,0-2,0-.2-.1,2-2.6,2-2.8v-4.4l-3.9,4.7-4.6-7.7v6c0,.2,2.2,3.1,2.3,3.7-.3,0-2.3-.1-2.3,0v5.6h4.2c.3,0,.7,1.2.6,1.6-2.1-.3-3.2-.1-5,1,0,.3.8,2.1,1,2.1.7.2.5-1.1.6-1.1.2-.2,1.7.5,2.1.4.5,0,1.3-.9,1.8-1.1,1.4,1.4-.4,2.9-.8,4.3l1.6-.4c.4,1.2-1.6,6.5-2.8,6.3-.4,0-.9-1.1-1.1-1.3-.3-.2-2.8-1.2-3.1-1.2-1.1,0-3.4,1.4-4,2.4.1-.8-.2-2.2.1-2.9,0-.1,2.1-2,2.2-2,.3,0,1.3.8,1.8.8s1.5-.8,1.8-.8c.4,0,1.7,1.9,2.4,2,.1-1.6.2-2.6-1.2-3.6-.5,1.4-1.5.3-2,.3-.2,0-.7.6-1.2.4v-4.4c-.6-.4-2.3-1.3-2.9-1.4-.6,0-1.8.4-2.5.2-.2-.1.6-1.6.8-1.6h4.2v-5.6c0-.1-2,0-2.3,0l2.3-3.7v-6l-4.6,7.7-3.9-4.7v4.4c0,.2,2.2,2.7,2,2.8-.4,0-1.9,0-2,0-.2.2,0,4.8,0,5.3,0,.4.2.3.5.4l-2.4,11.7,11.3,11.4,11.3-11.4c0-.3,0-.5,0-.8ZM99.9,97.5l-9.9,9.9c-3.5-3-6.6-6.5-9.9-9.7-.5-1,.3-2.1.3-3.1.3,0,.3.4.4.6.2.7.1,1.4.5,2,.8,1.3,3.6,3.3,4.7,4.6-.2-1.8,2.3-3.8,3.9-3.8s4,2.1,4.1,3.8c1.1-1.4,3.6-3.1,4.5-4.5.6-.9.3-2,1-2.7-.1.9.7,2.2.3,2.9Z"/>
        <polygon class="st2" points="85.1 74.8 82.4 73.7 84.3 76.1 85.1 74.8"/>
        <polygon class="st2" points="97.5 73.7 94.8 74.8 95.6 76.1 97.5 73.7"/>
      </g>
    </g>
    <g>
      <circle class="st0" cx="137.2" cy="42.8" r="22"/>
      <g>
        <path d="M139.8,41.5l1.8-.4c-.4,1-1,.5-1.8.4ZM132.8,40.8c.3.2,1.5.2,1.6.2.6.4-1.7,1.2-1.6-.2ZM130.8,41.5c.2-.2,1.5,1,2,1.1.8.1,1.5-.5,2.3-.4.4.4-1.9,4-2.1,4-.2,0-.9-.3-1-.5-.1-.1-1.5-2.6-1.5-2.8,0-.4.5-.9.4-1.4ZM148.6,50c-.3-3-2.1-7.3-2.2-10.2,0-.6.2-1,.2-1.5,0-.7.2-4.7,0-4.9,0,0-1.7,0-2,0-.2-.1,2-2.6,2-2.8v-4.4l-3.9,4.7-4.6-7.7v6c0,.2,2.2,3.1,2.3,3.7-.3,0-2.3-.1-2.3,0v5.6h4.2c.3,0,.7,1.2.6,1.6-2.1-.3-3.2-.1-5,1,0,.3.8,2.1,1,2.1.7.2.5-1.1.6-1.1.2-.2,1.7.5,2.1.4.5,0,1.3-.9,1.8-1.1,1.4,1.4-.4,2.9-.8,4.3l1.6-.4c.4,1.2-1.6,6.5-2.8,6.3-.4,0-.9-1.1-1.1-1.3-.3-.2-2.8-1.2-3.1-1.2-1.1,0-3.4,1.4-4,2.4.1-.8-.2-2.2.1-2.9,0-.1,2.1-2,2.2-2,.3,0,1.3.8,1.8.8s1.5-.8,1.8-.8c.4,0,1.7,1.9,2.4,2,.1-1.6.2-2.6-1.2-3.6-.5,1.4-1.5.3-2,.3-.2,0-.7.6-1.2.4v-4.4c-.6-.4-2.3-1.3-2.9-1.4-.6,0-1.8.4-2.5.2-.2-.1.6-1.6.8-1.6h4.2v-5.6c0-.1-2,0-2.3,0l2.3-3.7v-6l-4.6,7.7-3.9-4.7v4.4c0,.2,2.2,2.7,2,2.8-.4,0-1.9,0-2,0-.2.2,0,4.8,0,5.3,0,.4.2.3.5.4l-2.4,11.7,11.3,11.4,11.3-11.4c0-.3,0-.5,0-.8ZM147.1,50.3l-9.9,9.9c-3.5-3-6.6-6.5-9.9-9.7-.5-1,.3-2.1.3-3.1.3,0,.3.4.4.6.2.7.1,1.4.5,2,.8,1.3,3.6,3.3,4.7,4.6-.2-1.8,2.3-3.8,3.9-3.8s4,2.1,4.1,3.8c1.1-1.4,3.6-3.1,4.5-4.5.6-.9.3-2,1-2.7-.1.9.7,2.2.3,2.9Z"/>
        <polygon class="st2" points="132.4 27.5 129.7 26.4 131.6 28.9 132.4 27.5"/>
        <polygon class="st2" points="144.8 26.4 142.1 27.5 142.9 28.9 144.8 26.4"/>
      </g>
    </g>
  </g>
</svg>