<?xml version="1.0" encoding="UTF-8"?>
<svg id="Layer_1" xmlns="http://www.w3.org/2000/svg" version="1.1" xmlns:xlink="http://www.w3.org/1999/xlink" viewBox="0 0 176 256">
  <!-- Generator: Adobe Illustrator 29.5.1, SVG Export Plug-In . SVG Version: 2.1.0 Build 141)  -->
  <defs>
    <style>
      .st0 {
        font-size: 17.5px;
      }

      .st0, .st1, .st2 {
        font-family: Impact, Impact;
      }

      .st3 {
        fill: #c69b3c;
      }

      .st4, .st5 {
        fill: #fff;
      }

      .st5 {
        fill-rule: evenodd;
      }

      .st6, .st7, .st8 {
        fill: none;
      }

      .st9, .st7 {
        stroke: #000;
      }

      .st9, .st7, .st8 {
        stroke-miterlimit: 10;
      }

      .st9, .st10 {
        fill: #019a48;
      }

      .st7, .st8 {
        stroke-width: 2px;
      }

      .st1 {
        font-size: 19px;
      }

      .st11 {
        display: none;
      }

      .st2 {
        font-size: 29.6px;
      }

      .st8 {
        stroke: #019a48;
      }

      .st12 {
        clip-path: url(#clippath);
      }

      .st13 {
        fill: #0b0d0c;
      }
    </style>
    <clipPath id="clippath">
      <circle class="st6" cx="88" cy="118.2" r="35.2"/>
    </clipPath>
  </defs>
  <g>
    <path class="st10" d="M160.7,232.9l-68,21.6c-3.1,1-6.4,1-9.5,0l-67.9-21.6c-9.1-2.9-15.3-11.4-15.3-21V44.9c0-9.5,6.1-17.9,15.1-20.9L83.1,1.6c3.2-1,6.6-1,9.8,0l68,22.4c9,3,15.1,11.4,15.1,20.9v167c0,9.6-6.2,18.1-15.3,21Z"/>
    <path class="st13" d="M15.3,232.9l67.9,21.6c3.1,1,6.4,1,9.5,0l68-21.6c9.1-2.9,15.3-11.4,15.3-21v-22.9H0v22.9c0,9.6,6.2,18.1,15.3,21Z"/>
    <g>
      <g>
        <path class="st5" d="M59,211.9h13.2c.6,0,1.1.2,1.4.6h0c.4.4.6.9.6,1.4v12.8c0,.6-.2,1.1-.6,1.4h0c-.4.4-.9.6-1.4.6h-13.2c-.6,0-1.1-.2-1.4-.6h0c-.4-.4-.6-.9-.6-1.4v-12.8c0-.6.2-1.1.6-1.4h0c.4-.4.9-.6,1.4-.6h0ZM72.2,219.7v1.1h0c0,0,0,0,0,0h-1.9s0,0,0,0h0c0,0,0-1.1,0-1.1h0c0,0,0,0,0,0h1.9s0,0,0,0h0ZM63.1,224.3c.1,0,.2.1.3.1.2,0,.4,0,.5-.2l2-3s0,0,.1,0c.7,0,1.2-.6,1.2-1.2s-.5-1.2-1.2-1.2l-.7-1.5c-.2-.3-.5-.4-.8-.3-.3.2-.4.5-.3.8l.7,1.4c-.1.2-.2.4-.2.7s0,.4.1.5l-2,2.9c-.2.3-.1.7.1.8h0ZM64.9,213.3h1.1v1.9h0c0,0,0,0,0,0h-1.2v-1.9h0c0,0,0,0,0,0ZM60.5,219.7v1.1h0c0,0,0,0,0,0h-1.9s0,0,0,0h0v-1.1h0c0,0,0,0,0,0h1.9s0,0,0,0h0ZM64.9,224.7h1.1v1.9h0c0,0,0,0,0,0h-1.2v-1.9h0c0,0,0,0,0,0Z"/>
        <g>
          <polygon class="st3" points="65.5 206.9 62 210.8 56.9 207.5 56.9 215.4 74.2 215.4 74.2 207.5 69.1 210.8 65.5 206.9"/>
          <path class="st3" d="M70.6,201.7l1.9,2.5-3,2.1-2.2-2.3,1.7-1.4s-3-3.7-3.4-4.2c-.4.6-3.4,4.2-3.4,4.2l1.7,1.4-2.2,2.3-3-2.1,1.9-2.5-3.6-3.4v7.2l4.9,3.4,3.7-3.8,3.7,3.8,4.9-3.4v-7.2l-3.6,3.4Z"/>
        </g>
      </g>
      <text class="st0" transform="translate(76.4 212.5)"><tspan class="st4"><tspan x="0" y="0">KINGS</tspan></tspan><tspan class="st3"><tspan x="0" y="15.7">TIMER</tspan></tspan></text>
    </g>
  </g>
  <g class="st11">
    <text class="st2" transform="translate(40.1 68.8)"><tspan x="0" y="0">ESTRELA</tspan></text>
    <g>
      <circle cx="87.8" cy="121.9" r="39"/>
      <circle class="st8" cx="87.8" cy="121.9" r="35.2"/>
      <polygon class="st10" points="87.8 100.7 94.9 114.5 110.2 116.9 99.3 127.9 101.7 143.2 87.8 136.2 74 143.2 76.4 127.9 65.5 116.9 80.8 114.5 87.8 100.7"/>
    </g>
  </g>
  <g class="st11">
    <text class="st2" transform="translate(42.2 68.8)"><tspan x="0" y="0">PÊNALTI</tspan></text>
    <path d="M88,131.1c-9.6,0-17.9,8.5-17.9,17.9,0,9.3,8.4,17.9,17.9,17.9s17.9-8.3,17.9-17.9c0-9.6-8.3-17.9-17.9-17.9ZM101.8,141.9c.7,1.4,1.3,3,1.5,4.7l-2.5-1.8.9-2.9ZM100.1,139.3l-1.6,5.1-3.9,1.8-5.4-3.9v-4.7l4.3-3.1c2.6,1,5,2.7,6.7,4.9h0ZM93,148l-1.9,5.9h-6.2l-1.9-5.9,5-3.6,5,3.6ZM88,133.5c.8,0,1.7,0,2.5.2l-2.5,1.8-2.5-1.8c.8-.1,1.6-.2,2.5-.2ZM82.5,134.5l4.3,3.1v4.7l-5.4,3.9-3.9-1.8-1.6-5.1c1.7-2.2,4-3.9,6.7-4.9h0ZM74.2,141.9l.9,2.9-2.5,1.8c.3-1.7.8-3.2,1.5-4.7ZM75,157.6c-1.5-2.3-2.4-5-2.6-7.9l4.2-3,3.9,1.8,2.1,6.4-2.3,2.7h-5.3ZM77,160h3l.9,2.9c-1.5-.8-2.8-1.7-4-2.9h0ZM92.1,164c-1.3.4-2.7.6-4.1.6s-2.8-.2-4.1-.6l-1.6-4.9,2.3-2.7h6.8l2.3,2.7-1.6,4.9ZM95,162.9l.9-2.9h3c-1.2,1.2-2.5,2.1-4,2.9ZM101,157.6h-5.3l-2.3-2.7,2.1-6.4,3.9-1.8,4.2,3c-.1,2.9-1.1,5.6-2.6,7.9h0ZM122,91.1c-.2-.1-.4-.2-.7-.2H54.6c-.2,0-.5,0-.7.2-.7.3-1.3,1.1-1.3,2v46.5c0,.9,1.2,1.5,1.9,1l7.6-5.5h9.3c.7,0,1.2-.5,1.2-1.2s-.5-1.2-1.2-1.2h-2.2l-.7-5.9h5.7l.3,5.2c0,.6.6,1.1,1.2,1.1s0,0,0,0c.7,0,1.2-.6,1.1-1.3l-.3-5h5.7v2.3c0,.7.5,1.2,1.2,1.2s1.2-.5,1.2-1.2v-2.3h6.5v1.4c0,.7.5,1.2,1.2,1.2s1.2-.5,1.2-1.2v-1.4h5.7l-.3,5c0,.7.5,1.2,1.1,1.3,0,0,0,0,0,0,.6,0,1.2-.5,1.2-1.1l.3-5.2h5.7l-.7,5.9h-2.2c-.7,0-1.2.5-1.2,1.2s.5,1.2,1.2,1.2h9.3l7.6,5.5c.7.6,1.9,0,1.9-1v-46.5c0-.9-.5-1.6-1.3-2h0ZM73.2,107.6h-6.8l-.7-5.9h7.1l.3,5.9ZM72.4,93.3l.3,5.9h-7.2l-.7-5.9h7.6ZM65,115.9h-5.1l-1-5.9h5.4l.7,5.9ZM64,107.6h-5.5l-1-5.9h5.9l.7,5.9ZM62.4,93.3l.7,5.9h-6l-1-5.9h6.4ZM55.1,137.2v-35.3l5.4,31.3-5.4,3.9ZM60.4,118.3h4.9l.7,5.9h-4.6l-1-5.9ZM62.8,132.6l-1-5.9h4.4l.7,5.9h-4.1ZM66.7,110h6.6l.3,5.9h-6.3l-.7-5.9ZM68.4,124.2l-.7-5.9h6.1l.3,5.9h-5.8ZM82.4,124.2h-5.8l-.3-5.9h6.1v5.9ZM82.4,115.9h-6.3l-.3-5.9h6.6v5.9ZM82.4,107.6h-6.8l-.3-5.9h7.1v5.9ZM82.4,99.2h-7.2l-.3-5.9h7.6v5.9ZM91.2,124.2h-6.5v-5.9h6.5v5.9ZM91.2,115.9h-6.5v-5.9h6.5v5.9ZM91.2,107.6h-6.5v-5.9h6.5v5.9ZM91.2,99.2h-6.5v-5.9h6.5v5.9ZM99.4,124.2h-5.8v-5.9h6.1l-.3,5.9ZM99.9,115.9h-6.3v-5.9h6.6l-.3,5.9ZM100.4,107.6h-6.8v-5.9h7.1l-.3,5.9ZM100.9,99.2h-7.2v-5.9h7.6l-.3,5.9ZM113.6,93.3h6.4l-1,5.9h-6l.7-5.9ZM112.6,101.6h5.9l-1,5.9h-5.5l.7-5.9ZM117.1,110l-1,5.9h-5.1l.7-5.9h5.4ZM103.6,93.3h7.6l-.7,5.9h-7.2l.3-5.9ZM103.1,101.6h7.1l-.7,5.9h-6.8l.3-5.9ZM107.6,124.2h-5.8l.3-5.9h6.1l-.7,5.9ZM102.3,115.9l.3-5.9h6.6l-.7,5.9h-6.3ZM113.2,132.6h-4.1l.7-5.9h4.4l-1,5.9ZM110,124.2l.7-5.9h4.9l-1,5.9h-4.6ZM120.9,137.2l-5.4-3.9,5.4-31.3v35.3ZM123.7,85.3H52.4c-2.9,0-5.2,2.3-5.2,5.2v51.4c0,.7.5,1.2,1.1,1.2h0c.7,0,1.2-.5,1.2-1.2v-51.4c0-1.5,1.3-2.8,2.9-2.8h71.3c1.5,0,2.8,1.3,2.8,2.8v51.4c0,.7.5,1.2,1.2,1.2s1.2-.5,1.2-1.2v-51.4c0-2.9-2.3-5.2-5.2-5.2Z"/>
  </g>
  <g class="st11">
    <text class="st2" transform="translate(35.8 68.8)"><tspan x="0" y="0">CORINGA</tspan></text>
    <path class="st7" d="M88.1,160.9c-4.1,0-8.2-.2-11.7-.7-11.1-1.5-12.4-4.9-12.9-6.4-.6-1.7-.8-3.7-.9-5.7,0-.9-.1-1.7-.2-2.3-1.5-9.1-3.6-17.8-8.6-21.2-1.8,2.3-4.5,3.8-7.5,3.8s-.2,0-.3,0c-4.4-.1-8.1-3.2-9.1-7.5-1-4.3.9-8.5,4.7-10.6,1.6-.8,3.1-1.3,4.7-1.3s3.6.7,4.7,1.4c1.7-.8,3.1-1.3,4.3-1.6,1.8-.4,3.7-.6,5.5-.6,4.7,0,9.2,1.3,13.3,3.9,3-7,9.1-12.9,17.4-16.9.8-4.5,4.9-7.8,9.6-7.8s6.8,1.9,8.4,5.1c1.6,3.1,1.6,6.6-.2,9.4-1.7,2.7-4.7,4.5-8,4.7-.6,3,0,6.4,1.7,10.4,3.1-1.5,6.1-2.2,9.2-2.2s5.9.6,9.3,2c1.1.4,2.3,1.2,4.1,2.2,0,0,.1,0,.2.1,1-.5,2.3-.9,3.9-.9s3.3.5,4.9,1.3c3,1.7,4.8,4.8,4.8,8.3,0,3.5-1.9,6.7-5,8.4-1.4.8-3.1,1.2-4.7,1.2-2.6,0-5-1-6.8-2.8,0,0,0,0-.1-.1-.2,0-.3.2-.4.2-7.4,4.6-9.4,13.4-10,18.2l-.3,2.4-2.1,1.3c-3.6,2.2-7.6,2.9-10.4,3.3-3.5.5-7.5.7-11.6.7Z"/>
    <path d="M98.1,101c-4.1,7.9-1.2,16,2.9,23.2.3.2,2.6-1.7,3.2-2,5.3-2.9,9.9-2.8,15.5-.6s5,3.1,5.8,3.3c1.2.3,2.9-2.8,6.5-.7s3,6.3-.1,8-6.7-.2-6.7-3.6c-.5-.5-4.8,1.8-5.5,2.2-7.6,4.7-11.3,13.3-12.3,21.9-2.5,1.5-5.5,2.2-8.5,2.6-6.8.9-15.2.9-22,0s-8.2-1.3-8.8-3.1-.5-5.1-.9-7.1c-1.6-9.8-4.5-24.9-16.2-26.6-.2,2.5-2.2,5.2-4.9,5.1-4.7-.2-6.3-6.5-2.2-8.7s5.5,1.5,6.5,1.4,4.3-2,6-2.4c7.9-1.7,14.9,1.3,20.2,7.1.3,0,1.2-4.2,1.5-5,2.9-8.3,10.4-14,18.3-17.2.4-.4,0-1.4,0-2.1.5-4.2,6.6-5.7,8.7-1.6s-2.7,8.5-6.9,6Z"/>
  </g>
  <g class="st11">
    <text class="st2" transform="translate(66.1 49.8)"><tspan x="0" y="0">GOL</tspan><tspan x="-15.5" y="26">DUPLO</tspan></text>
    <text class="st1" transform="translate(66.9 182.8)"><tspan x="0" y="0">4 MIN</tspan></text>
    <path d="M88,85c-20,0-37.5,17.7-37.5,37.5,0,19.5,17.6,37.5,37.5,37.5s37.5-17.4,37.5-37.5c0-20-17.3-37.5-37.5-37.5ZM113.4,102.3l-3.4,10.6-8.2,3.7-11.2-8.2v-9.9l8.9-6.5c5.5,2.1,10.4,5.6,14,10.2ZM98.5,120.4l-4,12.3h-13l-4-12.3,10.5-7.6,10.5,7.6ZM88,90c1.8,0,3.5.1,5.2.4l-5.2,3.7-5.2-3.7c1.7-.3,3.4-.4,5.2-.4ZM76.6,92.1h0s8.9,6.5,8.9,6.5v9.9l-11.2,8.2-8.2-3.7-3.4-10.6c3.6-4.5,8.4-8.1,14-10.2ZM59.1,107.7l2,6.1-5.2,3.7c.5-3.5,1.6-6.8,3.2-9.8ZM60.9,140.4c-3.2-4.8-5.1-10.4-5.4-16.4l8.7-6.4,8.2,3.7,4.4,13.4-4.9,5.7h-11.1ZM65,145.4h6.4l2,6.1c-3.1-1.6-5.9-3.6-8.3-6.1ZM96.6,153.8c-2.8.8-5.7,1.2-8.6,1.2s-5.9-.4-8.6-1.2l-3.4-10.3,4.9-5.7h14.3l4.9,5.7-3.4,10.3ZM102.7,151.4l2-6.1h6.4c-2.4,2.4-5.2,4.5-8.3,6.1ZM115.1,140.4h-11.1l-4.9-5.7,4.4-13.4,8.2-3.7,8.7,6.4c-.3,6.1-2.2,11.7-5.4,16.4ZM116.9,107.7c1.6,3,2.7,6.3,3.2,9.8l-5.2-3.7,2-6.1Z"/>
  </g>
  <g>
    <text class="st2" transform="translate(49.1 49.8)"><tspan x="0" y="0">SHOOT</tspan><tspan x="15.9" y="26">OUT</tspan></text>
    <g>
      <g>
        <path d="M86.7,97.4c.2-.2.4-.5.5-.8.3-.6.6-1.2.8-1.8.1-.3.2-.6.4-1,.1-.3.2-.6.3-.9,0-.1.1-.3.2-.4,0,0,0,0,0,0,0,0,0,0,0,0,.1-.2.2-.4.3-.6,0,0,0-.2,0-.3,0-.1,0-.2,0-.4,0-1.3-.4-2.5-.4-3.7-.2-.1-.5,0-.7.2-.2,0-.3.2-.5.3-.2,0-.4,0-.5,0-.7,0-1.3-.3-2-.5-.4,0-.7-.2-1.1-.2-.3,0-.7-.1-1,0-.1,0-.2.1-.3.2,0,.1,0,.3,0,.4,0,.3.2.6,0,.9,0,.2-.1.3-.2.5,0,.2-.2.3-.2.5,0,.2-.2.3-.2.5,0,.2-.2.4-.3.5,0,0,0,0,0,0,0,0,0,0-.1,0-.1,0-.2-.2-.3-.3,0,0-.2-.2-.3-.2-.1,0-.2,0-.3.2,0,0-.2.2-.2.3-.1.2-.1.5-.1.8,0,.3,0,.6.2.9,0,.1,0,.3.1.4,0,0,0,.2.1.2,0,0,.1,0,.1,0,0,.2,0,.3,0,.5,0,.4,0,.7.1,1.1,0,.2,0,.3.1.5,0,.1.1.3.2.4.2.2.4.4.6.6.2.2.5.4.7.6.5.3,1,.6,1.6.8.5.2,1.1.3,1.6.2.2,0,.5-.1.7-.3Z"/>
        <path d="M79.9,92.1c0,.3.2.6.3,1,0,.3.2.5.1.8,0-.2.1-.4.1-.6,0-.2,0-.3,0-.5,0,0,0,0,0,0,0-.2-.1-.4-.1-.5,0-.3-.1-.6-.2-1,0-.2,0-.3,0-.5,0-.1.1-.3.2-.4,0-.1.2-.2.3-.3.1,0,.3-.1.4,0,.1,0,.2.2.3.3,0,.1.1.2.2.3,0-.2.1-.3.2-.5,0-.2.2-.4.3-.6,0-.2.2-.4.3-.6,0-.2.2-.3.1-.5,0-.3-.2-.6,0-.9,0-.3.4-.5.7-.5.2,0,.4,0,.6,0,.2,0,.4,0,.6,0,.4,0,.7.2,1.1.3.3,0,.7.2,1,.3.3,0,.7.1,1,0,.2,0,.3-.1.5-.2.1,0,.3-.2.4-.3.2,0,.4,0,.6,0,0,0,.2,0,.2,0,0,0,0,0,0,0,0,0,0,0,0,0,0,0,0,.2,0,.2,0,0,0,.2,0,.2,0,.9.3,1.8.4,2.7,0-.2,0-.4.2-.6,0-.2.2-.4.3-.6.1-.2.3-.4.4-.6.2-.4.3-.9.2-1.3,0-.4-.3-.8-.5-1.1,0,0,0,0,0,0,0,0-.2-.2-.3-.3-.9-.8-1.9-1.3-3.1-1.5-.6-.1-1.1-.2-1.7-.3-.6,0-1.2,0-1.9,0-.6,0-1.2.3-1.8.6-.5.3-.9.7-1.1,1.2-.1.3-.2.6-.3.9,0,.3-.1.7-.2,1,0,.3,0,.7,0,1,0,.2,0,.3-.1.5,0,.2-.1.3-.1.5,0,.3,0,.7,0,1,0,.3.1.7.2,1Z"/>
        <path d="M80.8,93.2s0,0,0,0c0,.4-.2.8-.3,1.2-.1.5-.3.9-.4,1.4,0,.2-.1.5-.2.7,0,.1,0,.2-.1.3,0,.1,0,.2,0,.3,0,0,0,.2.1.2,0,0,.1.1.2.2.1.1.3.3.4.4.6.5,1.3.9,2,1.1.4.1.7.2,1.1.3.4.1.8.2,1.2.2.2,0,.5,0,.7,0,0,0,.1,0,.2,0,0,0,0,0,.1,0,0,0,0-.1,0-.1,0,0,0-.1,0-.2,0-.5,0-.9,0-1.4,0,0,0,0,0,0-.6,0-1.2-.2-1.7-.4-.6-.2-1.1-.6-1.6-.9-.2-.2-.5-.4-.7-.6-.2-.2-.4-.5-.5-.8,0-.2,0-.3-.1-.5,0-.2,0-.4,0-.5,0-.3,0-.6,0-1,0,0,0,0,0,0Z"/>
        <path d="M54.2,130c.2-.1.4-.2.6-.4.4-.3.7-.6,1-.9.2-.2.3-.3.5-.5.2-.2.3-.3.5-.5,0,0,.2,0,.1.1,0,.1-.2.2-.3.3-.1,0-.2.2-.3.3-.2.2-.4.4-.6.6-.4.3-.8.6-1.2.9-.1,0-.2.1-.3.2,0,.1,0,.3,0,.4.1.1.3.2.5.2.4,0,.8-.2,1.1-.4.4-.2.7-.5,1-.7.3-.3.7-.5,1-.8.2-.1.3-.3.5-.4,0,0,.1-.1.2-.2,0,0,.1-.1.2-.2,0,0,.1,0,.1,0,0,.1,0,.2-.2.3,0,0-.2.2-.3.2-.2.2-.4.4-.6.5-.3.2-.5.4-.8.6,0,.1.2.2.3.2.2,0,.4,0,.6-.1.3,0,.6-.2.8-.3.3-.2.5-.4.6-.7.2-.3.3-.6.4-.9,0-.2.1-.3.2-.5,0-.2.1-.3.2-.5,0,0,0,0,0,0,.2-.5.4-1,.6-1.5.3-.6.6-1.1,1-1.6.4-.5.8-.9,1.3-1.4.4-.4.9-.9,1.2-1.4,0-.1.2-.3.1-.4,0,0,0-.2,0-.2,0,0,0,0,0,0,0,0,0-.1,0-.2-.2-.2-.4-.4-.6-.6,0,0,0,0,0-.1-.2-.2-.5-.4-.7-.5-.3-.2-.7-.1-1.1,0-.3,0-.7.2-.8-.1,0,0,0,0,0-.1,0,0,0,0,0,.2,0,.1,0,.2,0,.3,0,.2-.2.3-.4.5-.6.6-1.1,1.2-1.7,1.9-.3.3-.5.6-.8,1,0,0-.1.2-.2.3,0,0,0,.2-.2.2,0,0-.2,0-.2,0,0,0-.1,0-.2,0-.2,0-.3.2-.5.2-.3.2-.6.5-.9.7-1.1.9-2.1,1.9-3.2,2.8-.1.1-.2.2-.3.3,0,0-.2.2-.1.3,0,.1.1.2.2.2.1,0,.3,0,.4,0,.3-.1.6-.3.8-.5.1,0,.3-.2.4-.3,0,0,0,0,0,0,0,0,0,0,0,0,0,0,.2-.1.2-.2,0,0,0,0,.1,0,0,0,0,0,0,0,0,0,.1,0,.2-.1,0,0,.2-.2.3-.2,0,0,0,0,.1-.1,0,0,0,0,.1-.1,0,0,0,0,0,0,0,0,0,.1,0,.2,0,0,0,0-.1.1,0,0-.2.2-.3.2,0,0-.2.1-.3.2-.1.1-.3.2-.4.3-.2.1-.3.2-.5.3-.1,0-.2.1-.3.2,0,0,0,0,0,0,0,.1-.2.2-.3.3-.1,0-.2.2-.3.3-.2.2-.4.3-.6.5-.1.1-.3.3-.2.5,0,.2.3.2.4.1.2,0,.4-.2.6-.3.2-.1.4-.2.6-.4.4-.2.8-.5,1.1-.8.4-.3.7-.6,1.1-.9,0,0,.2,0,.1.1-.2.2-.4.4-.6.6-.2.2-.4.4-.7.5-.4.3-.8.6-1.2.8,0,0,0,0,0,0-.2.1-.4.2-.5.4-.1.2-.3.4-.3.6,0,.2.2.3.3.4.2,0,.4,0,.6,0,.2,0,.4-.2.6-.3Z"/>
        <path d="M61.5,118.9c.2,0,.3,0,.4,0,.2,0,.4,0,.5,0,.4,0,.7.1,1,.3.3.2.5.4.7.6.1.1.2.3.3.4,0,0,.1.1.2.2,0,0,0,0,.1-.1.6-.5,1.3-1.1,1.8-1.7.6-.6,1.1-1.2,1.6-1.9.5-.6,1-1.3,1.5-1.9.3-.3.6-.6.9-.8.4-.3.7-.5,1-.8.3-.3.7-.6,1-.9.3-.3.6-.6.9-.9,0,0-.1-.1-.2-.2-.4-.3-.7-.6-1.1-.8-.8-.5-1.6-1-2.4-1.4-.2,0-.4-.2-.6-.2-.2,0-.4-.1-.6-.2-.1,0-.2,0-.3-.2,0,0,0,0,0,0-.3.8-.8,1.4-1.3,2.1-.9,1.2-1.9,2.2-2.7,3.5-.2.4-.4.7-.6,1.1-.2.4-.5.7-.8,1.1-.3.4-.5.7-.8,1.1-.2.3-.5.6-.7,1,0,0,0,0,0,0,0,0-.1.1-.2.2,0,0,0,.1-.1.2,0,.2,0,.2.2.2Z"/>
        <path d="M63.2,146.6c-.6-.2-1.1-.9-1-1.5,0-.3.3-.7.5-.9.2-.3.5-.5.7-.7.6-.5,1.2-.9,1.8-1.3.3-.2.6-.4,1-.5.2,0,.5-.1.8,0,0-.1-.1-.2-.2-.4-.3-.3-.6-.6-1-.7-.4-.1-.9-.1-1.3,0-.5.2-1,.5-1.4.7-.5.2-1,.5-1.5.7-1,.4-2.1.7-3.1,1-1,.2-2.1.4-2.9,1-.8.5-1.3,1.4-1.7,2.2,0,.2-.2.4-.3.6,0,.2-.2.5-.2.7,0,.2,0,.4.1.6.1.2.3.3.5.4.2.1.4.2.6.2.3,0,.5.1.8.2.5,0,1.1,0,1.6-.2,1-.3,1.9-.9,2.9-1.1,1.1-.3,2.2-.3,3.3-.3.5,0,1.1,0,1.6-.2.4-.1.7-.3.9-.6-.8.3-1.6.5-2.4.2Z"/>
        <path d="M78.8,145.8c0,0-.1-.2-.2-.3-.2-.5-.3-1.1-.3-1.6,0-.6,0-1.1,0-1.7,0-.6,0-1.2.1-1.8,0-.3,0-.6.1-.9,0-.3,0-.5.2-.8-.8-.3-1.6-.5-2.4-.4-.4,0-.8.1-1.1.3-.4.1-.7.3-1.1.5-.8.4-1.6.7-2.3,1-.8.3-1.6.7-2.4,1-.8.3-1.5.6-2.3.7,0,0-.1,0-.1-.1-.3,0-.6,0-.9.2-.3.2-.7.4-1,.6-.6.4-1.2.8-1.7,1.2-.2.2-.5.4-.6.7-.2.3-.4.6-.4.9,0,.3.1.6.3.8.2.2.5.4.8.4.6.1,1.1,0,1.7-.2,0,0,0,0,0-.1.1,0,.2,0,.3,0,.4-.1.9-.1,1.3-.1.5,0,1,0,1.4,0,1,0,1.9,0,2.9,0,1,0,1.9,0,2.9,0,.9,0,1.9,0,2.8,0,.8,0,1.5,0,2.2-.4,0,0-.1,0-.1,0-.1,0-.2,0-.3-.1Z"/>
        <path d="M85.1,140.6c-.9-.5-1.7-1-2.6-1.3-1-.3-2.1-.3-3.1-.7,0,0,0,0,0,0,0,0,0,0-.1,0,0,0,0,0,0,0,0,0,0,0,0,0,0,0,0,0,0,0,0,0,0,0,0,0,0,0,0,0,0,0s0,0,0,0c0,0,0,0,0,0,0,0,0,0,0,0,0,0,0,0,0,0,0,0,0,0,0,0,0,0,0,0,0,0,0,0,0,0,0,0,0,0,0,0,0,0,0,0,0,0,0,0,0,0,0,0,0,0,0,0,0,0,0,0,0,.6-.2,1.1-.2,1.7,0,.6,0,1.1-.1,1.7,0,.5,0,1.1,0,1.6,0,.3,0,.5.1.8,0,.1,0,.3.1.4,0,.1,0,.2.1.3,0,0,.2.1.3.1.1,0,.3,0,.4,0,.3,0,.6,0,.9,0,.6,0,1.1-.1,1.7-.2.3,0,.6-.1.8-.2.3,0,.5-.1.8-.2.2,0,.5-.2.6-.4.2-.2.3-.3.5-.5.3-.4.6-.9.9-1.4.3-.4.5-.9.7-1.4,0,0-.1,0-.2,0-.4-.2-.9-.4-1.3-.7Z"/>
        <path d="M95.6,143.3c-.4.5-.9,1-1.4,1.4-.1,0-.3.2-.4.3,0,0,.2,0,.2,0,.5,0,1-.2,1.5-.4.2,0,.5-.2.7-.3.1,0,.2-.1.3-.2.1,0,.2-.1.3-.2,0,0,0,0,0,0,0,0,0-.1,0-.2,0-.2-.2-.4-.2-.6,0-.1,0-.2-.1-.3,0,0,0-.1,0-.2-.3.3-.6.6-.9.9Z"/>
        <path d="M104.3,166.3c-.2-.2-.5-.3-.8-.4-.3-.1-.6-.2-.9-.3-.3,0-.6-.2-.9-.3-.6-.2-1.2-.5-1.7-.8-.6-.3-1.1-.7-1.6-1.1-.1,0-.2-.2-.3-.3,0-.1-.1-.3-.1-.5,0-.1,0-.3,0-.4,0,0-.1-.2-.3-.2,0,0,0,0,0,0-.2,0-.3,0-.5-.2-.2-.1-.4-.2-.6-.3-.4-.2-.8-.4-1.3-.6-.4-.2-.9-.3-1.3-.4-.2,0-.5,0-.7,0-.2,0-.4,0-.6,0,0,0,0,0,0,.1,0,0,0,0,0,.1,0,0,0,0,0,.1,0,.1,0,.2,0,.3,0,0-.1.2-.2.2,0,0,0,0,0,.1,0,0,0,0-.1,0,0,0,0,0,0,0-.3.4-.6.8-.8,1.3-.2.5-.4,1.1-.6,1.7,0,.3-.2.6-.2.8,0,.3-.1.6,0,.8,0,.3.2.5.5.6.3.1.5.1.8.1.4,0,.7,0,1.1,0,.4,0,.7,0,1.1-.1,0,0,0,0,0,0,0,0,0,0,0,0,1.5-.1,2.9-.1,4.4,0,1.5.1,2.9.3,4.4.4.4,0,.7,0,1.1,0,.3,0,.6-.1.8-.4,0-.1.1-.2,0-.4,0-.1-.1-.2-.2-.3Z"/>
        <path d="M104.6,145.9c0,0-.1,0-.2-.1,0,0,0,0,0,0,0,0-.1,0-.2-.1-1.2-.6-2.5-1-3.8-1-.7,0-1.3,0-2,.2-.2,0-.3,0-.5.1-.2,0-.3.1-.5.2-.2.2-.4.5-.4.8-.2.7-.4,1.5-.6,2.3-.2.8-.4,1.5-.6,2.3-.2.8-.4,1.5-.5,2.3-.2.8-.4,1.5-.6,2.3-.2.7-.4,1.5-.7,2.2-.1.4-.3.7-.4,1.1-.1.4-.3.7-.5,1.1,0,0,0,0,0,0,0,0,0,0,0,.1-.1.2-.2.5-.3.7,0,0,0,.1,0,.2.2,0,.4,0,.5,0,.3,0,.5,0,.8,0,.9.2,1.7.6,2.6,1,.2.1.4.2.6.3.2,0,.4.2.6,0,.1,0,.2-.2.2-.3,0-.1.2-.2.3-.3,0,0,0,0,0,0,0,0,.1-.2.2-.3.1-.2.2-.3.3-.5.1-.2.2-.4.3-.5,0,0,.1-.2.2-.3,0,0,0,0,0,0,.2-.4.4-.8.6-1.3.2-.5.5-.9.7-1.4.5-.9.9-1.8,1.3-2.8.4-.9.8-1.9,1.2-2.8.4-.9.7-1.9,1-2.9.2-.5.3-1,.5-1.5,0-.2.2-.5.2-.7,0,0,0-.2,0-.3,0,0,0,0,0,0Z"/>
        <path d="M104.4,141c-.2-.4-.5-.8-.6-1.2,0,0,0,0,0,0,0,0,0,0-.1,0-.4,0-.8,0-1.1,0-.7,0-1.3.2-1.9.4-1.3.4-2.5,1-3.5,1.8-.2.1-.3.2-.4.4,0,0,0,0,0,.1,0,0,0,.1,0,.2,0,.1,0,.2.1.3,0,.2.2.4.2.6.1.4.3.8.4,1.2,0,0,0,0,0,0,0,0,.2,0,.3-.1.3,0,.7-.2,1-.2.7,0,1.4-.1,2,0,1.2.1,2.4.5,3.5,1.1,0-.4.2-.8.3-1.2.1-.4.2-.8.3-1.1,0-.4,0-.8,0-1.1-.1-.4-.3-.7-.5-1.1Z"/>
        <path d="M90.9,142.7c.2.3.4.6.6.9.2.3.4.6.7.8.2.2.4.5.7.5.3,0,.7-.1.9-.3.3-.2.5-.4.7-.6.5-.4.9-.9,1.3-1.4.5-.5,1-.9,1.5-1.3,1.1-.7,2.3-1.3,3.5-1.6.6-.2,1.3-.3,1.9-.3.2,0,.4,0,.6,0,.1,0,.2,0,.3,0,0,0,.2,0,.3,0,.1,0,.3,0,.3-.2,0,0,0-.1,0-.2,0,0,0-.1,0-.2,0,0,0,0,0,0-.2-.9-.7-1.8-1.1-2.7-.2-.5-.4-1-.6-1.5-.2-.5-.4-.9-.6-1.3-.5-.9-1-1.7-1.6-2.5-.3-.4-.6-.8-.9-1.2-.3-.4-.7-.8-1-1.2-.3-.4-.5-.8-.6-1.3,0-.2,0-.5,0-.7,0-.1,0-.2,0-.4,0,0,0-.1,0-.2,0,.2-.2.4-.4.6-.3.3-.7.4-1.2.5-.9.2-1.9.2-2.8.1-1.9-.2-3.7-.8-5.5-1.3-.9-.2-1.9-.4-2.8-.4-1,0-1.9,0-2.8.3-.5.1-.9.2-1.4.4-.2,0-.5.1-.7.2-.2,0-.4,0-.5,0-.1,0-.2,0-.3-.2,0,0,0,.2,0,.3,0,.3,0,.5,0,.8,0,.3,0,.6,0,.9,0,.6,0,1.2,0,1.7,0,1.2,0,2.3,0,3.5,0,.3,0,.6,0,.9,0,.1,0,.3,0,.4,0,.1,0,.2-.1.4,0,.3,0,.5.2.7,0,.2.1.5,0,.8,0,.3,0,.5-.1.8,0,.2-.2.5-.2.7,0,.1,0,.2.1.3,0,0,.2.1.3.2.2,0,.5.2.7.2.5.1,1,.2,1.5.3.5,0,.9.3,1.4.5.9.4,1.7.9,2.5,1.4.3.2.6.3.9.4,0,0,0,0,0,0,.1,0,.2,0,.3.1.2,0,.4.1.6,0,.2,0,.2-.4.3-.5.1-.2.3-.4.5-.5.2-.2.4-.3.5-.5.3-.3.7-.7,1-1,.7-.7,1.3-1.4,1.8-2.2.5-.8.9-1.6,1.1-2.6,0-.1.2,0,.2,0,0,.2-.1.5-.2.7-.3.9-.8,1.8-1.4,2.5-.5.7-1.1,1.4-1.8,2.1,0,.1.1.3.2.4.3.6.4,1.3.6,1.9,0,.3.2.7.3,1Z"/>
        <path d="M68.3,108c0,.1.2.2.4.3.2,0,.3.1.5.2.4.1.8.3,1.3.5.8.4,1.6.9,2.3,1.4.4.3.7.5,1.1.8,0,0,0,0,0,0,0,0,0,0,0,0,.1,0,.3.2.4.2.2,0,.4-.2.5-.3.7-.6,1.3-1.3,1.9-2,.3-.3.5-.7.8-1.1.1-.2.2-.4.4-.6.1-.2.2-.4.4-.6,0-.1.2,0,.2.1,0,.1-.1.2-.2.3-.5.8-1,1.6-1.6,2.3-.3.4-.6.7-.9,1,0,0-.1.1-.2.2.1.3.3.6.5.8.2.3.4.5.7.8.4.5.9,1,1.3,1.6.4.5.9,1,1.3,1.5.4.5.7,1,.9,1.6.2.6.3,1.2.3,1.8,0,0,0,.1-.1.1,0,.9,0,1.8,0,2.7,0,.4-.2.9-.3,1.3-.1.5-.3.9-.4,1.3,0,.4-.2.9-.1,1.3,0,0,0,.1,0,.2,0,0,0,0,0,.1,0,0,.1,0,.2,0,.2,0,.4,0,.6-.1.9-.3,1.8-.5,2.7-.7.9-.1,1.8-.2,2.7-.1.9,0,1.8.3,2.7.5,1.8.5,3.6,1.1,5.4,1.2.9,0,1.8,0,2.7-.2.4-.1.7-.3.9-.6.2-.3.2-.7,0-1,0,0,0,0,0,0,0,0,0,0,0,0-.2-1.5-.4-3-.7-4.4-.2-1.5-.5-3-.8-4.4-.3-1.5-.6-2.9-1-4.4-.3-1.4-.7-2.9-1.2-4.3-.2-.7-.5-1.3-.8-1.9-.3-.6-.7-1.2-1-1.8,0-.1.1-.2.2-.1,0,.1.2.3.3.4.5.8.9,1.6,1.2,2.4,0,0,0,0,0,0,.1,0,.3,0,.4,0,.3,0,.5-.1.8-.2.1,0,.2-.1.3-.2,0-.1.1-.2.1-.4,0-.3,0-.6,0-.9,0-.3,0-.6,0-.9,0-.6,0-1.2,0-1.9,0-.6,0-1.2,0-1.8,0-.3,0-.6-.2-.8,0-.2-.1-.5-.4-.6-.1,0-.3,0-.4,0-.2,0-.3,0-.5,0-.3,0-.6,0-.9,0-1.2,0-2.5,0-3.7-.1-.6,0-1.2-.2-1.8-.3-.6,0-1.2-.2-1.7-.3,0,0,0,0,0,0,0,.1,0,.2,0,.3,0,.3,0,.5,0,.8,0,.1,0,.2,0,.4,0,.1,0,.2,0,.3,0,0-.1.1-.2.2-.1,0-.2,0-.4,0-.2,0-.5,0-.7,0-.8-.1-1.7-.3-2.4-.6-.7-.3-1.5-.7-2-1.3-.1-.1-.3-.3-.4-.4-.1-.1-.2-.3-.2-.4,0,0,0,0,0,0-.1,0-.3,0-.4,0-1.1.2-2.1.6-3,1.3-.9.6-1.6,1.5-2.3,2.3-.7.8-1.5,1.6-2.2,2.5-.7.9-1.3,1.8-1.8,2.8-.2.4-.4.9-.7,1.3,0,0-.1.2-.2.3,0,0-.2.1-.3.2,0,0-.2.1-.2.2,0,0,0,0,0,0,0,0,0,0,0,0Z"/>
        <path d="M108,96.5c0,0-.2-.2-.3-.2,0,0-.2-.2-.3-.2-.1,0-.2,0-.4,0-.1,0-.3,0-.4,0-.6,0-1.2.2-1.7.3-1.1.2-2.3.5-3.4.8-.5.1-1.1.3-1.6.5-.5.2-1,.4-1.5.7-.2.1-.5.3-.7.4-.2.1-.5.2-.7.2-.5,0-.9.1-1.4,0,0,.2.1.4.2.6,0,.3,0,.6,0,.9,0,.6,0,1.3,0,1.9,0,.6,0,1.3,0,1.9,0,.3,0,.5,0,.8.1,0,.3,0,.4,0,.1,0,.3,0,.4-.1.5-.2,1-.5,1.4-.8.2-.2.4-.3.7-.5.1,0,.2-.1.4-.2.1,0,.2-.1.4-.1,0,0,0,0,0,0,.2,0,.3-.1.5-.2.4-.1.7-.3,1.1-.4,1.3-.5,2.6-1,3.9-1.6.6-.3,1.3-.6,1.9-.9.3-.2.6-.3.9-.5.3-.2.6-.4.9-.5,0,0,.1-.1.2-.2.3-.5.1-1,0-1.5-.2-.4-.4-.8-.8-1.2Z"/>
        <path d="M121.4,92.3c0-.1-.2,0-.3,0-.1,0-.3,0-.4.1-.3,0-.6.2-.9.3-.6.2-1.2.4-1.8.6,0,0-.1,0,0-.1.7-.3,1.4-.6,2.1-.8.2,0,.4-.1.6-.2,0,0,.1,0,.2-.1,0,0,.2-.1.3-.2,0,0,.2,0,.2-.2,0,0,0,0,0-.1,0-.1-.2-.1-.4,0-.2,0-.3.1-.5.2-.3.2-.6.3-1,.4-.7.3-1.3.5-2,.6,0,0-.1-.1,0-.1.4-.1.8-.2,1.3-.4.4-.1.7-.3,1.1-.4.2,0,.4-.2.5-.2.2,0,.3-.2.5-.2,0,0,0,0,0,0,0,0,0,0,0,0,0-.1,0-.2-.2-.2-.1,0-.3,0-.4,0-1.1.5-2.3.9-3.5,1.2,0,0-.1,0,0-.1.3-.1.7-.3,1.1-.4.6-.2,1.3-.4,1.9-.7.2,0,.3-.1.5-.2,0,0,.2,0,.3-.1,0,0,0-.1-.2-.1-.1,0-.2,0-.3,0-.3.1-.5.2-.8.3-.5.2-1,.3-1.4.4-.5.1-1,.3-1.5.4-.5.1-1,.2-1.4.5-.3.2-.5.5-.8.8,0,0,0,0,0,0-.4.3-.8.7-1.3.9-.4.2-.9.3-1.4.4-.5.1-1,.2-1.4.4-.5.1-.9.3-1.4.5-.1,0-.2,0-.3.1-.1,0-.2,0-.4,0-.2,0-.4,0-.4.2,0,0,0,0,0,0,.1,0,.2,0,.3.2,0,0,.2.2.3.2.2.2.3.4.5.6.3.4.5.9.6,1.3,0,.3,0,.6,0,.9,0,.1,0,.2-.2.3.2,0,.4,0,.5-.2,0-.1.1-.2.2-.2.1,0,.3,0,.4-.1.9-.4,1.8-.8,2.7-1.2.9-.4,1.7-.9,2.5-1.5,0,0,0,0,0,0,.2,0,.5-.2.7-.2.3,0,.6-.2.9-.3.5-.2,1-.3,1.4-.5.2,0,.5-.2.7-.3.1,0,.2-.1.3-.2,0,0,.2-.1.3-.2,0,0,0-.2,0-.2,0,0-.2,0-.3,0-.3,0-.5,0-.8.1-.5.1-1,.3-1.5.4,0,0-.1,0-.1-.1,0,0,0,0,0-.1.5-.4,1.1-.7,1.7-.9.3-.1.5-.2.8-.3.2,0,.5-.1.7-.2.2,0,.4-.1.6-.3,0,0,.2-.1.3-.2,0,0,.2-.2.1-.3Z"/>
      </g>
      <g>
        <path d="M112.7,158.9c0-.2,0-.3,0-.5.2,0,.3-.1.4-.2.2-.1.3-.3.5-.4.3-.3.7-.5,1-.8.2-.1.3-.2.5-.4,0,0,0,0,.1-.1,0,0,.1,0,.2,0,0,0,.1,0,.2,0,.2,0,.3.1.5.2.3.1.6.2.8.3,0,.5,0,1,0,1.5,0,.3,0,.5,0,.8,0,.1,0,.3,0,.4,0,0,0,.1,0,.2,0,0,0,0,0,.1,0,0-.1.1-.2.2,0,0-.1.1-.2.2-.2.1-.3.3-.5.4-.3.2-.5.4-.8.6,0,0-.2,0-.3-.1-.1,0-.2,0-.3-.1-.2,0-.4-.2-.7-.3-.2,0-.4-.2-.7-.3-.2,0-.4-.2-.6-.2,0-.3,0-.7,0-1,0-.2,0-.4,0-.6Z"/>
        <path d="M116.1,161c.2-.1.3-.2.5-.4,0,0,.1-.1.2-.2,0,0,0,0,.1-.1,0,0,.1,0,.2.1,0,0,.2,0,.3.1.2,0,.4.2.6.2.4.2.8.3,1.2.4.1,0,.2,0,.4,0,.1,0,.2,0,.3,0,0,0,0,.1,0,.2,0,0,0,.2,0,.2,0,.2,0,.3,0,.5,0,.3.1.7.2,1-.3,0-.5.3-.7.5-.3.2-.5.5-.8.7-.2.1-.3.3-.5.4-.1.1-.3.2-.4.3,0,0,0,0-.1,0,0,0,0,0-.1,0,0,0-.2,0-.3,0-.2,0-.4-.1-.6-.2-.2,0-.4-.1-.6-.2,0,0-.2,0-.3-.1,0,0,0,0-.1,0,0,0,0,0,0,0,0-.5-.2-1-.2-1.4,0-.2,0-.5,0-.7,0-.1,0-.2,0-.4,0-.1,0-.2,0-.3.3-.2.5-.4.8-.6Z"/>
        <path d="M117,160.1s0,0,0-.1c0,0,0-.1,0-.2,0-.1,0-.3,0-.4,0-.3,0-.5,0-.8,0-.5,0-1,0-1.5,0,0,.2,0,.3,0,.1,0,.2,0,.3-.1.2,0,.4-.1.7-.2.4-.1.9-.3,1.4-.4,0,0,0,.1.1.2,0,0,.1.2.2.2.1.2.3.3.4.5.2.3.5.7.7,1,.1.2.2.4.3.6-.2.4-.5.8-.8,1.2-.1.2-.3.4-.4.6-.1.2-.3.3-.4.5,0,0-.2,0-.3,0-.1,0-.2,0-.3,0-.2,0-.4-.1-.6-.2-.4-.1-.8-.3-1.2-.4-.1,0-.2,0-.3-.1,0,0-.1,0-.2,0,0,0,0,0,0,0,0,0,0,0,0,0,0,0,0,0,0,0Z"/>
        <path d="M120.2,162.3c0-.2,0-.3,0-.5,0,0,0-.2,0-.2,0,0,0-.1,0-.2.2-.2.3-.4.4-.6.1-.2.3-.4.4-.6.3-.4.5-.8.8-1.3.2,0,.4.2.6.2.2,0,.5.2.7.2,0,0,0,.1,0,.2,0,.1,0,.2,0,.4,0,.2,0,.5.1.7,0,.5,0,1,0,1.5,0,0,0,.1,0,.2,0,0,0,0,0,0,0,0,0,0-.1.1,0,0,0,.1-.1.2,0,.1-.2.2-.3.3,0,.1-.2.2-.3.3,0,0,0,.1-.1.2,0,0,0,0,0,0,0,0-.1,0-.2,0h-.3c-.2,0-.3-.1-.5-.1h-.5c-.1-.1-.3-.2-.4-.2,0,0,0,0,0,0,0-.3-.1-.7-.2-1Z"/>
        <path d="M122.5,163.9s0-.1,0-.1c0,0,0,0,0,0,0,0,0,0,0,0,0,0,0,0,0,0,0,0,0-.1.1-.2,0-.1.2-.2.3-.3,0-.1.2-.2.3-.3,0,0,0-.1.1-.2,0,0,0,0,0-.1,0,0,.1,0,.2,0-.3.7-.7,1.4-1.2,1.9,0,0,0-.1,0-.2,0,0,0-.2,0-.3,0,0,0,0,0-.1Z"/>
        <path d="M123.6,162.5s0,0,0,0c0,0,0-.1,0-.2,0-.1,0-.2,0-.3,0-.2,0-.4,0-.7,0-.5-.1-.9-.2-1.3,0-.1,0-.2,0-.4,0,0,0-.2,0-.3,0,0,0,0,0,0,0,0,0-.2.1-.3,0-.1,0-.2.1-.4,0-.1,0-.2.1-.3,0,0,0-.1,0-.2.3.8.5,1.6.4,2.5,0,.6-.1,1.3-.4,1.8,0,0,0,0-.1,0Z"/>
        <path d="M123.5,157.9s0,0,0,.1c0,0,0,.1,0,.2,0,.1,0,.2-.1.3,0,.1,0,.2-.1.3,0,0,0,.2,0,.2-.2,0-.4-.1-.7-.2-.2,0-.4-.1-.7-.2,0,0,0,0,0,0-.4-.7-.9-1.4-1.4-2.1,0,0-.2-.2-.2-.3,0,0-.1-.1-.2-.2,0,0,0,0,0,0,0-.1,0-.2.1-.4,0,0,0-.1,0-.2,0,0,0,0,0-.1,0,0,0,0,0,0,0,0,0,0,0,0,.1,0,.2,0,.3,0,.2,0,.4,0,.6-.1,1,.6,1.8,1.6,2.3,2.7Z"/>
        <path d="M120.1,155.3s0,0-.1,0c-.2-.2-.3-.3-.5-.5,0,0-.2-.2-.2-.2.6.1,1.2.4,1.7.7h-.4c-.1.1-.2.1-.3.2,0,0-.1,0-.1,0Z"/>
        <path d="M119,154.4c0,0,.1.1.2.2,0,0,.2.2.3.3.2.2.3.4.5.5,0,0,0,0,0,0,0,0,0,0,0,0,0,0,0,0,0,.1,0,0,0,.1,0,.2,0,.1,0,.2,0,.3,0,0,0,0,0,0-.5.1-.9.3-1.4.4-.2,0-.5.2-.7.2-.1,0-.2,0-.3.1,0,0-.2,0-.3.1,0,0,0,0,0,0-.3-.1-.6-.2-.8-.3-.1,0-.3-.1-.4-.2,0,0-.1,0-.2,0,0,0-.1,0-.2,0,0,0,0-.2,0-.3,0-.5.2-.9.3-1.4.8-.3,1.6-.5,2.5-.4.3,0,.6,0,.9,0Z"/>
        <path d="M115.4,154.8c0,.3-.1.7-.2,1,0,.2,0,.4-.1.5,0,.1-.3.2-.4.4-.3.2-.6.5-.9.7-.2.1-.3.2-.5.4,0,0-.2.1-.2.2,0,0-.1.1-.2.2-.1,0-.2,0-.3-.1,0,0-.1-.1-.2-.2.6-1.4,1.7-2.4,3.1-3Z"/>
        <path d="M112.3,158c.1.1.2.3.3.3,0,.2,0,.3,0,.5,0,.2,0,.4,0,.6,0,.4,0,.8,0,1.2,0,0,0,0,0,0,0,0,0,0,0,.1,0,0,0,.2,0,.2,0,.2-.1.3-.2.5,0,.2,0,.3-.1.5,0,0,0,.2,0,.2,0,0,0,0,0,0-.2-.6-.3-1.3-.3-2,0-.8.2-1.5.5-2.2Z"/>
        <path d="M112.1,162.4s0,0,0,0c0,0,0-.1,0-.2,0,0,0-.2,0-.2,0-.2,0-.3.1-.5,0-.2,0-.3.1-.5,0,0,0-.2,0-.2,0,0,0,0,0-.1.2,0,.4.2.5.2.2,0,.4.2.7.3.2,0,.4.2.7.3.1,0,.2,0,.3.1h.2c0,0,0,0,0,0,0,0,0,0,0,0,0,0,0,.2,0,.2,0,.1,0,.2,0,.4,0,.3,0,.5,0,.7,0,.5.1,1,.2,1.4-.1,0-.2,0-.4.1-.2,0-.3.1-.5.2-.2,0-.3,0-.5.1,0,0-.2,0-.3,0,0,0,0,0-.1,0-.8-.7-1.3-1.6-1.7-2.5Z"/>
        <path d="M113.9,165.1c0,0,.2,0,.2,0,.2,0,.3,0,.5-.1.2,0,.3-.1.5-.2.1,0,.3,0,.4-.2,0,0,.1,0,.2.1,0,0,.2,0,.3.1.2,0,.4.2.6.2.2,0,.4.1.6.2,0,0,.2,0,.3,0,0,0,.2,0,.3,0,0,0,0,0,0,0,0,0,0,0,0,0,0,0,0,0,0,.1,0,0,0,.1,0,.2,0,.1.1.2.2.3,0,.1.1.2.2.3,0,0,0,.1,0,.2,0,0,0,0,0,0-.3,0-.5,0-.8,0-1.4,0-2.7-.6-3.7-1.4Z"/>
        <path d="M118.7,166.5s0,0,0,0c0,0,0-.1,0-.2,0-.1-.1-.2-.2-.3,0-.1-.1-.2-.2-.3,0,0,0-.2-.2-.3,0,0,.2-.1.3-.2.1-.1.3-.2.4-.3.3-.2.5-.5.8-.7.1-.1.3-.2.4-.3.1,0,.2-.2.4-.2.2,0,.3,0,.5,0,.2,0,.3,0,.5,0,.2,0,.4,0,.6.1h.3c0,0,.2,0,.3,0,0,0,0,0,0,0,0,0,0,0,0,.1,0,0,0,.2,0,.3,0,0,0,.2,0,.3,0,0,0,0,0,.1-.9,1-2.2,1.6-3.6,1.8Z"/>
      </g>
    </g>
  </g>
  <g class="st11">
    <text class="st2" transform="translate(19.7 68.8)"><tspan x="0" y="0">SUSPENSÃO</tspan></text>
    <text class="st1" transform="translate(66.9 182.8)"><tspan x="0" y="0">4 MIN</tspan></text>
    <g>
      <g class="st12">
        <g>
          <g>
            <polygon points="88.1 195.9 88.1 195.9 88.1 195.9 88.2 195.9 88.1 195.9"/>
            <path d="M93,109s0,0,0,0c-1,1.6-2.3,2.9-3.8,3.9-.4.3-.8.5-1.2.7-.5.2-.9.4-1.4.6-.9.2-1.9,0-2.7-.6-.4-.3-.8-.7-1-1.1-.2-.4-.4-.8-.5-1.2,0,0,0,0,0-.1,0-.4,0-.7.1-1.1,0-.2,0-.4,0-.6,0-.1,0-.3,0-.4,0,0,.2,0,.3.1.4.2.7.4,1.1.5.8.3,1.7.4,2.6.2.9-.2,1.8-.6,2.6-1,.4-.2.9-.4,1.3-.6.2,0,.4-.2.5-.3.2,0,.3-.2.5-.3.1-.1.3-.2.4-.4.1-.2.2-.4.2-.6,0-.1,0-.3,0-.4,0,.2,0,.4.1.6.2.7.5,1.3.8,2Z"/>
            <path d="M79.1,94.9c0-.3,0-.5,0-.8,0-.2,0-.5.1-.7.3-.9,1-1.6,1.7-2.2.7-.6,1.5-1.1,2.4-1.4.9-.4,1.9-.5,2.9-.5,1,0,2,.2,2.9.5,1.4.5,2.9,1,3.9,2.2.2.3.4.7.5,1,.2.5.2,1,.2,1.5,0,1.1,0,2.1,0,3.2,0,.1,0,.3,0,.4,0,.1,0,.2,0,.3h0c-.3,0-.6.1-.8.4,0,0,0,0-.1.1,0-.3,0-.5,0-.8,0-.8-.2-1.6-.4-2.4-.1-.5-.3-1.1-.9-1.3-.3-.1-.7,0-1,0-.4,0-.7.2-1.1.3-.4.1-.7.2-1.1.2-.4,0-.9,0-1.3.1-.9,0-1.7.1-2.6,0-.4,0-.8,0-1.3,0-.4,0-.9,0-1.3-.1-.2,0-.4,0-.6,0-.2,0-.4,0-.5.2-.2.2-.4.4-.5.7,0,.3-.1.6-.2.8,0,.4,0,.7,0,1.1,0,.7,0,1.4.1,2h0c0-.2-.2-.2-.3-.3,0-.4,0-.8,0-1.2,0-.5,0-1,0-1.5,0-.5-.2-1-.2-1.6Z"/>
            <path d="M79.7,102.3c-.2-.3-.3-.7-.4-1,0-.3-.1-.5-.2-.8,0-.2,0-.5,0-.8,0,0,0,0,0,0,0,0,0,0,.1,0,0,0,0,0,0,0,0,0,0,.1,0,.2,0,0,0,0,0,0,0,0,0,0,0,0,0,0,.1,0,.2,0h0c0,0,0,0,0,.1,0,.2,0,.5,0,.7,0,.2,0,.5,0,.7,0,.4,0,.8.1,1.2-.1-.2-.3-.3-.4-.5Z"/>
            <path d="M82.3,108.6c-.3-.1-.5-.3-.7-.5-.2-.2-.3-.5-.4-.7-.2-.6-.3-1.2-.4-1.8,0-.3,0-.6-.1-.9,0-.4-.1-.8-.2-1.1-.1-.9-.2-1.8-.4-2.6,0,0,0,0,0-.2,0-.8-.1-1.6-.2-2.4,0-.7,0-1.4,0-2.1,0-.5.3-1.2,1-1.1.2,0,.4,0,.6.1.2,0,.4,0,.6,0,.4,0,.8,0,1.2.1.8,0,1.6,0,2.5,0,.4,0,.8,0,1.2-.1.4,0,.8,0,1.2-.2.7-.1,1.4-.4,2.1-.5.3,0,.6,0,.8.2.2.1.3.4.4.6.1.3.2.6.2,1,0,.4.1.8.2,1.2,0,.6.2,1.2.1,1.8,0,.1,0,.2,0,.3,0,.1,0,.2.2.2,0,0,.2,0,.2-.1.1-.4.4-1,.9-1,0,0,.1,0,.2,0h0s0,0,0,0h0s0,0,0,0h0s0,0,0,0c0,.1.1.3.1.4,0,.4,0,.8,0,1.2,0,.4-.2.9-.3,1.3,0,.4-.2.7-.5,1-.2.2-.4.4-.6.5,0,0,0,0,0-.1,0-.1,0-.3-.1-.4,0,0-.1-.1-.2,0,0,0-.1.2,0,.2,0,0,0,.2,0,.3,0,.2,0,.3,0,.5,0,.4,0,.7,0,1.1,0,.4,0,.9-.2,1.3,0,.2,0,.4-.1.6,0,.2,0,.4-.2.5-.2.3-.5.4-.8.5-.4.2-.8.4-1.2.6-.4.2-.8.4-1.2.5-.4.2-.8.4-1.3.5-.4.1-.9.2-1.3.2-.4,0-.8,0-1.2-.1-.8-.2-1.5-.6-2.2-1Z"/>
            <path d="M60.1,162s0,0,0-.1c0,0,0,0,0,0,0,0,0,0,0,0,.3-.8.5-1.6.7-2.3.3-1,.4-2,.5-3,0-.2,0-.5,0-.7,0-.2.1-.5.2-.7.2-.5.3-.9.4-1.4.2-1,.4-2.1.5-3.1.4-2.1.7-4.2,1.1-6.3.3-2,.7-4,1.3-6,.5-1.7,1.3-3.4,2.4-4.8.1-.2.3-.3.4-.5,0,0,0,0,0,0,.2.2.5.4.8.5.7.3,1.4.5,2.1.6.8.2,1.7.3,2.6.2.2,0,.4,0,.6-.1,0,0,0,0,.1-.1,0,0,0,0,0,0,0,0,0,0,0,0-.4.7-.6,1.5-.7,2.2-.1.8-.3,1.6-.5,2.4-.4,1.6-.9,3.2-1.5,4.7-.6,1.5-1.4,3-2.1,4.5-.8,1.5-1.6,2.9-2.4,4.4-.4.7-.9,1.4-1.2,2.2-.3.8-.3,1.7-.2,2.5,0,.2,0,.4.2.6,0,0,0,0,0,0-1.2,1-2.4,2-3.6,3.1-.6.5-1.1,1-1.7,1.5,0,0,0,0,0,0Z"/>
            <path d="M51.9,215.5c0,.7,0,1.5-.5,2-.3.5-.9.8-1.4,1-.7.2-1.4.2-2.2.1-.8,0-1.6-.2-2.4-.3-.8-.1-1.6-.2-2.4-.3-.8,0-1.6-.2-2.4-.1-.7,0-1.4.3-2.1.5-.7.2-1.4.5-2.1.6-1.4.2-2.8-.3-4-.9-.6-.3-1.2-.7-1.8-1.2-.5-.4-.9-1-.7-1.7.2-.6.9-.9,1.5-.9.4,0,.8,0,1.1,0,.4,0,.7,0,1.1,0,.7,0,1.5-.3,2.1-.5.7-.3,1.3-.7,1.9-1.2,1.3-.9,2.6-1.9,4-2.8.2-.1.4-.3.6-.4,0,0,.1,0,.2,0l.9-1.1c.1-.1.2-.3.4-.4.2,0,.4,0,.5.1.2.1.3.3.4.4.1.2.3.3.4.5.2.3.2.7.2,1,0,.2,0,.4-.1.5,0,0,0,.2-.1.3,0,0-.1.2-.2.3,0,.1,0,.3.2.2,0,0,.2-.1.2-.2h0c.6.7,1.5,1.2,2.4,1.4.5.1.9.2,1.4.2.5,0,1,0,1.4-.4.4-.3.6-.7.7-1.1.5,1.4.7,2.9.7,4.4Z"/>
            <path d="M56.4,188.2c0,1.1,0,2.2-.3,3.3-.2,1.1-.5,2.2-.9,3.2-.4,1.1-.9,2.1-1.3,3.2-.8,2.1-1.4,4.3-1.8,6.5-.2,1.1-.5,2.2-.7,3.4-.1.6-.2,1.1-.3,1.7,0,.5-.2,1.1-.3,1.6,0,.2-.2.4-.3.6-.2.2-.4.3-.6.3-.4.1-.9.2-1.4.1-.9,0-1.8-.5-2.5-1.1-.2-.1-.3-.3-.5-.5,0,0,0,0,0,0,0-.2.1-.3.2-.5,0-.4,0-.8-.1-1.2-.1-.2-.3-.4-.4-.6-.1-.2-.3-.4-.5-.5h0s0,0,0,0c0-1.6,0-3.3,0-4.9v-4.9c0-1.6,0-3.3,0-4.9,0-.8,0-1.6.2-2.4.1-.8.3-1.6.4-2.4.2-.8.3-1.6.5-2.4,0-.4.1-.7.2-1.1,0-.3.1-.6.3-.8,0,0,0,0,.1-.1,0,.3.1.6.3.8.2.3.6.5.9.7.6.4,1.3.7,2,.9,1.4.4,3,.4,4.4,0,.4-.1.8-.3,1.2-.4.3-.1.6-.3.9-.5.1,1,.2,1.9.2,2.9Z"/>
            <path d="M64,177.7c-.3.2-.5.4-.8.7-.5.4-1,.8-1.6,1.3-1.1.8-2.2,1.6-3.4,2.2-.3.2-.7.4-1,.6-.3.2-.6.3-1,.5,0,0-.1,0-.2.2,0,.3,0,.6,0,1,0,.2,0,.5,0,.8,0,0,0,0,0,.1h0c-.3.2-.6.4-.9.5-.3.1-.6.3-1,.4-.7.2-1.3.3-2,.4-1.4,0-2.8-.2-4-.9-.3-.2-.7-.4-1-.6-.3-.2-.6-.6-.5-1,0,0,0,0,0,0,0-.2,0-.5,0-.7,0-.3,0-.6,0-.8,0-.6.1-1.1.2-1.7.1-1.1.3-2.3.6-3.4.1-.5.2-1.1.4-1.6.2-.5.6-.8.9-1.2.8-.8,1.7-1.6,2.5-2.4l2.8-2.8c.3.4.8.6,1.2.8.8.5,1.5.9,2.2,1.4,1.5,1,2.9,2,4.2,3.2,1,.8,2,1.7,2.9,2.6-.2.2-.5.4-.7.6Z"/>
            <path d="M93.6,219.9c.2.4.5.7.6,1.1.2.5.3,1,.2,1.6,0,.6-.3,1.1-.5,1.6-.2.5-.4,1.1-.5,1.6-.3,1.1-.3,2.3-.4,3.5,0,.3,0,.6,0,.9,0,.3,0,.5,0,.8-.1.5-.6.7-1,1-1.9,1.1-4.2,1.6-6.3,1-.5-.1-1-.3-1.5-.6-.2-.1-.4-.2-.5-.4,0-.1,0-.3,0-.4,0-.2,0-.3,0-.4.1-.6.3-1.1.6-1.6.2-.5.4-1.1.6-1.6.4-1.1.8-2.2,1-3.3.1-.6.2-1.1.3-1.7,0-.3,0-.6,0-.9,0-.3,0-.6,0-.8,0-.1.1-.3.2-.4,0,0,0,.2.1.3,0,.1.2,0,.2,0,0-.1,0-.3-.1-.4,0,0,0-.2,0-.2,0,0,0-.1,0-.2,0-.2,0-.5.2-.6.2-.2.5-.2.8-.2.3,0,.6,0,1,0,.6,0,1.2.1,1.8.2.3,0,.6.1.9.2.2,0,.5.1.7.3.2.1.4.3.4.6,0,.3-.1.6-.2,1,0,.2.3.2.4,0,0-.1,0-.2,0-.3,0,0,.2,0,.2,0,.4-.4.6-1,.7-1.5Z"/>
            <path d="M96.9,196.5c0,.8,0,1.7,0,2.5,0,.9,0,1.9-.2,2.8-.1.9-.4,1.8-.6,2.7-.5,1.8-.9,3.6-1.3,5.4-.4,1.8-.8,3.7-1.2,5.5-.2.9-.4,1.8-.3,2.7,0,.5.1.9,0,1.4,0,.4-.1.8-.3,1.1,0,.1-.1.2-.2.3,0,0,0-.1,0-.2,0-.3-.1-.6-.3-.7-.2-.2-.5-.3-.7-.4-.3-.1-.6-.2-1-.3-.7-.2-1.4-.3-2.1-.3-.3,0-.7,0-1,0-.3,0-.7,0-.9.2,0,0-.2.1-.2.2,0-.2,0-.4,0-.5,0-.4.3-.6.5-.9.4-.6.5-1.4.5-2.1,0-1.7,0-3.3,0-5,0-1.7,0-3.3,0-5,0-.8-.1-1.6-.1-2.5,0-.8,0-1.6,0-2.4,0-1.6.3-3.2.6-4.8,0,0,0-.2,0-.3,0,0,0,0,0,0h0s0,0,0,0h0s0,0,0,0h0s0,0,0,0c.3.5.9.8,1.4,1,.5.2,1.1.4,1.7.4,1.3,0,2.5-.3,3.6-.9.5-.3,1.1-.6,1.4-1.1,0-.2.1-.3.2-.5.3.5.4,1.1.5,1.7Z"/>
            <path d="M96.6,188.2c0,1.4-.2,2.8-.3,4.2,0,.7-.1,1.4-.2,2.1,0,.3,0,.6-.3.8-.2.2-.4.4-.6.5-1,.7-2.2,1.1-3.4,1.2-.6,0-1.2,0-1.8-.3-.3-.1-.6-.2-.8-.4-.2-.1-.3-.2-.5-.4,0,0,0,0,0,0-.6-1.4-1-2.8-1.2-4.3,0-.8,0-1.6-.2-2.3-.2-.8-.5-1.5-.7-2.2-.1-.4-.2-.8-.3-1.3,0-.4-.1-.9-.2-1.3h0c.2,0,.4,0,.6,0,1,0,1.9.2,2.9.2.9,0,1.8,0,2.7,0,1.5,0,3-.2,4.4-.6,0,1.3,0,2.7-.1,4Z"/>
            <path d="M100.3,162.2c.2.8.3,1.5.2,2.3,0,.8-.2,1.6-.3,2.4-.1.8-.2,1.6-.3,2.4-.2,1.6-.4,3.2-.7,4.8-.2,1.6-.4,3.2-.6,4.8-.1.8-.2,1.6-.2,2.4,0,.4,0,.8,0,1.1,0,.3,0,.6-.3.9,0,0,0,0,0,0,0,0-.1,0-.2,0-1.6.8-3.4,1.1-5.2,1.2-.9,0-1.8,0-2.7,0-.9,0-1.9-.1-2.8-.2-.9,0-1.9-.2-2.8-.4-.5,0-.9-.2-1.4-.3-.4-.1-.9-.3-1.3-.5-.2-.1-.3-.2-.4-.4-.1-.2-.2-.4-.2-.6-.1-.5-.3-.9-.4-1.4-.2-.9-.4-1.9-.5-2.8-.2-1-.3-1.9-.5-2.9-.1-.5-.2-.9-.4-1.4-.1-.4-.3-.8-.5-1.2,0-.1-.2-.3-.3-.4.1-.2,0-.4-.3-.2-1.3,1.2-2.6,2.5-3.9,3.8-.6.7-1.2,1.3-1.8,2-.3.3-.6.7-.9,1-.3.3-.5.6-.8.9-.3.3-.6.5-1,.6-.4,0-.8,0-1.2,0-.8-.2-1.5-.7-2.1-1.3-.6-.6-1.2-1.2-1.8-1.8-.6-.6-1.3-1.2-1.9-1.7-1.3-1.1-2.6-2.2-4-3.2-.7-.5-1.4-1-2.1-1.5-.4-.2-.7-.5-1.1-.7-.3-.2-.7-.4-1-.6-.3-.2-.5-.5-.3-.9.1-.4.5-.7.7-.9.7-.6,1.3-1.3,2-1.9,1.3-1.3,2.6-2.5,4-3.7,1.4-1.2,2.7-2.4,4.1-3.6,1.4-1.2,2.8-2.3,4.2-3.4.3-.2.6-.5.9-.7,0,0,0,.1.2.1.2.4.5.6.9.8.5.3,1.1.5,1.7.8,1.2.5,2.5,1,3.8,1.4,2.6.8,5.2,1.3,7.8,1.8,2.8.5,5.5,1,8.3,1.4,1.4.2,2.9.4,4.3.5.7,0,1.4,0,2-.1.2,0,.4-.2.6-.3,0,.7.3,1.3.5,2Z"/>
            <path d="M101.9,134.4c-.1,0-.3,0-.4-.1-.1,0-.3,0-.4-.2,0,0-.1-.2-.1-.3,0-.2,0-.3,0-.5,0-.3,0-.7-.1-1,0,0,0-.1,0-.2,0,0,0,0,0-.1,0-.9,0-1.8,0-2.7,0-1.5.2-3,.3-4.5,0-.1-.2-.1-.2,0-.4,2.5-.6,5-.4,7.5-.1,1.1,0,2.3,0,3.4,0,.6,0,1.2,0,1.8,0,.6-.1,1.2-.2,1.8-.2,1.2-.1,2.4-.1,3.6,0,1.2,0,2.4,0,3.6,0,.7,0,1.4,0,2.1,0,.3,0,.7,0,1,0,.2,0,.3,0,.5,0,0,0,.2,0,.3-.1,1.3-.2,2.7-.2,4,0,.7,0,1.4,0,2.1,0,.7.2,1.3.2,2,0,.6-.2,1.1-.7,1.5-.5.4-1.1.4-1.7.4-.7,0-1.4-.1-2.1-.2-.7,0-1.4-.2-2.1-.3-2.7-.4-5.4-.8-8.1-1.3-2.6-.4-5.1-1-7.7-1.7-1.3-.3-2.5-.7-3.7-1.2-.6-.2-1.2-.5-1.8-.8-.5-.2-1.1-.4-1.5-.8-.2-.1-.3-.3-.4-.5,0-1.2.4-2.2.9-3.3.2-.6.5-1.1.7-1.7.2-.6.4-1.3.5-1.9.3-1.4.6-2.8.9-4.2.1-.7.3-1.3.4-2,.1-.7.2-1.4.2-2.1,0-.8,0-1.5,0-2.3,0-.7,0-1.5-.1-2.2.1-.3-.2-.5-.3-.7-.1-.3-.2-.6-.2-.9,0-.7-.1-1.5-.2-2.2-.2-1.5-.4-2.9-.7-4.4,0-.4-.2-.8-.2-1.2,0-.4-.2-.8-.3-1.2,0-.1-.2,0-.2,0,0,.4,0,.7.2,1.1,0,.4.1.7.2,1.1.1.7.2,1.4.3,2.1.2,1.4.4,2.9.5,4.3,0,.4,0,.7.1,1.1,0,.2.1.3.2.5h0s0,0,0,0c-.8.2-1.6.2-2.4,0-.7-.1-1.5-.3-2.1-.5-.6-.2-1.3-.5-1.6-1.1-.1-.2-.1-.3,0-.5,0-.2.1-.4.2-.6.1-.4.2-.8.3-1.2.4-1.6.5-3.3.7-4.9.2-1.7.4-3.3.9-4.9.2-.8.4-1.6.7-2.4.2-.6.4-1.3.9-1.8h0c.2-.1.3-.2.5-.3.2,0,.4-.2.6-.3.4-.2.8-.4,1.2-.6.8-.4,1.5-.7,2.3-1,.8-.3,1.6-.6,2.4-.9.8-.3,1.5-.6,2.2-1,.7-.4,1.4-.9,2-1.4,0,.3,0,.6-.1.9,0,0,0,0,0,.1,0,1,.6,1.9,1.3,2.6.7.7,1.8,1.1,2.8,1,.6,0,1.1-.2,1.6-.5.4-.2.9-.4,1.3-.7.8-.5,1.6-1.1,2.3-1.8.8-.8,1.5-1.6,2.1-2.6,0-.1,0-.2,0-.2,0,0,0,0,0,0,0,0,0,0,0,0,.1.1.3.2.4.3.3.2.7.4,1,.6.8.4,1.5.8,2.3,1.1,1.6.7,3.2,1.3,4.8,1.7.4.1.9.2,1.3.4.2,0,.4.1.6.2,0,0,.2,0,.3.1h0c-1.3,1.7-1.9,3.7-2.3,5.8-.1.6-.2,1.2-.3,1.7,0,.1.2.1.2,0,.3-1,.4-2,.7-3,.3-1,.6-1.9,1-2.8.3-.5.5-1,.9-1.4,1.2.5,1.8,1.7,2.4,2.8.7,1.2,1.3,2.5,1.8,3.9.5,1.3,1,2.7,1.3,4.1.4,1.4.7,2.8.9,4.2.1.7.3,1.4.3,2.1,0,.6,0,1.3-.4,1.6,0,0-.3,0-.3.1h0c0,0-.1,0-.2,0-.1,0-.1.1-.1.2,0,0-.2,0-.2.1-.3.1-.6.3-.9.4-.6.3-1.2.5-1.8.8-1.2.4-2.4.7-3.6.7-.6,0-1.2,0-1.8-.3Z"/>
            <path d="M112.6,147.5c-.2,1.7-.4,3.4-.6,5.1,0,.9-.2,1.7-.2,2.6,0,.9-.2,1.7-.2,2.6,0,.2,0,.3,0,.5,0,.2,0,.3,0,.5,0,.3-.1.7-.2,1,0,.7-.2,1.3-.2,2-.1,1.3-.2,2.7-.2,4,0,.4,0,.7,0,1.1,0,.2,0,.4,0,.6,0,.2,0,.3,0,.5,0,0,0,0,0,0,0,.2,0,.4,0,.5,0,.2,0,.4-.1.6,0,.4-.2.8-.4,1.2-.2.3-.4.6-.6.9-.1.1-.2.2-.4.3,0,0-.2.1-.2.2.1-.3.2-.5.3-.8.2-.4.4-.8.5-1.2,0-.2-.2-.3-.3-.1-.2.4-.4.9-.6,1.3-.2.4-.3.7-.5,1.1-.2.3-.4.6-.7.8-.2.2-.5.2-.8.2.2-.2.4-.5.6-.8.2-.4.4-.9.6-1.3.1-.3.2-.5.3-.8,0-.1.1-.3.2-.4,0-.1.1-.3.1-.4,0-.1-.1-.2-.2,0-.1.2-.2.4-.3.6,0,.2-.2.4-.3.6-.2.4-.3.8-.5,1.2-.2.3-.3.7-.6,1-.3.3-.6.5-.9.6-.2,0-.4.2-.6.2-.1,0-.4,0-.3-.2,0,0,0,0,0-.1.7-.5,1.4-1,1.8-1.8.2-.4.4-.9.6-1.4.2-.5.4-1.1.6-1.6,0-.2-.2-.3-.3,0-.2.4-.3.9-.5,1.3-.1.4-.3.8-.4,1.2-.2.4-.4.7-.7,1-.3.3-.6.6-.9.8-.3.2-.7.5-1.1.6-.3,0-.6,0-.6-.4,0-.2.1-.4.2-.5.1-.2.2-.3.4-.5.2-.3.5-.7.6-1,.2-.4.4-.8.5-1.2,0-.2.1-.4.2-.7,0-.2,0-.4.1-.7,0-.2.2-.4.2-.6,0-.2-.2-.2-.3-.1-.2.3-.3.6-.5.9l-.4.9c-.1.3-.2.5-.4.8-.1.2-.3.4-.5.5-.2,0-.4,0-.5-.2-.1-.2-.1-.4,0-.6,0-.3.2-.5.3-.7.1-.3.2-.5.3-.8.2-.6.3-1.1.3-1.7,0-.6,0-1.1.1-1.7,0-.6.3-1.1.6-1.6.3-.5.6-.9.9-1.3.4-.6.6-1.2.9-1.8.2-.6.5-1.2.7-1.8,0,0,.1-.2.1-.3,0-.4,0-.8-.1-1.2,0-.8-.2-1.6-.4-2.4-.3-1.6-.7-3.2-1-4.8-.3-1.6-.5-3.2-.6-4.8,0-.8,0-1.6,0-2.4,0-.4,0-.8,0-1.2,0-.4-.1-.8-.2-1.2-.2-.8-.5-1.6-.8-2.4l-.9-2.4v-.4c1.1,0,2.4-.2,3.6-.6.7-.2,1.4-.5,2.1-.9.2,0,.4-.2.5-.3,0,0,0,0,0,0,.7,1.4,1.4,2.9,1.9,4.4.5,1.5.9,3.1,1,4.7.1,1.7,0,3.4-.2,5.1Z"/>
          </g>
          <g>
            <path d="M32.2,223.5c0-.3,0-.6,0-.9.3,0,.5-.3.7-.4.3-.2.6-.5.8-.7.6-.5,1.1-.9,1.7-1.4.3-.2.5-.4.8-.7,0,0,.1-.2.2-.2,0,0,.2,0,.3.1.1,0,.3,0,.4.1.3,0,.5.2.8.3.5.2,1,.3,1.5.5,0,.9,0,1.7,0,2.6,0,.5,0,.9,0,1.4,0,.2,0,.5,0,.7,0,.1,0,.2,0,.3,0,0,0,.1,0,.2-.1,0-.2.2-.3.3-.1.1-.2.2-.4.3-.3.2-.5.5-.8.7-.4.4-.9.8-1.3,1.2-.1,0-.3-.1-.5-.2-.2,0-.4-.1-.6-.2-.4-.1-.8-.3-1.2-.4-.4-.1-.8-.3-1.2-.4-.4-.1-.7-.3-1.1-.4,0-.6,0-1.2,0-1.8,0-.3,0-.7,0-1Z"/>
            <path d="M38.2,227c.3-.2.5-.4.8-.7.1-.1.3-.2.4-.3,0,0,.1-.1.2-.2,0,0,.2.1.4.2.2,0,.3.1.5.2.3.1.7.3,1,.4.7.2,1.4.4,2.1.6.2,0,.4,0,.6.1.2,0,.4,0,.6,0,0,.1,0,.3,0,.4,0,.1,0,.3,0,.4,0,.3.1.6.2.9.1.6.2,1.1.4,1.7-.5.1-.8.6-1.2.9-.5.4-.9.9-1.4,1.3-.3.2-.5.5-.8.7-.2.2-.4.4-.6.6,0,0-.2,0-.3,0,0,0-.2,0-.2,0-.2,0-.3,0-.5-.1-.3,0-.7-.2-1-.3-.3-.1-.7-.2-1-.3-.2,0-.3-.1-.5-.2,0,0-.2,0-.2,0,0,0,0,0,0-.1-.2-.8-.3-1.7-.5-2.5,0-.4-.1-.8-.2-1.3,0-.2,0-.4,0-.6,0-.2,0-.4,0-.6.5-.3.9-.7,1.4-1.1Z"/>
            <path d="M39.7,225.4c0,0,0-.1,0-.2,0-.1,0-.2,0-.3,0-.2,0-.4,0-.7,0-.5,0-.9,0-1.4,0-.9,0-1.8,0-2.6.2,0,.3-.1.5-.2.2,0,.4-.2.6-.2.4-.1.8-.3,1.2-.4.8-.3,1.5-.5,2.3-.8,0,0,.2.2.2.3.1.1.2.3.4.4.2.3.5.5.7.8.5.6.9,1.1,1.3,1.7.2.3.4.6.6,1-.4.7-.8,1.5-1.3,2.2-.2.4-.5.7-.7,1.1-.2.3-.4.6-.6.9-.2,0-.3,0-.5,0-.2,0-.4,0-.5-.1-.4,0-.7-.2-1.1-.3-.7-.2-1.4-.4-2.1-.7-.2,0-.4-.1-.6-.2,0,0-.2,0-.3-.1,0,0-.1,0-.2,0,0,0,0,0,0,0,0,0,0-.1,0-.1Z"/>
            <path d="M45.4,229c0-.3-.1-.6-.2-.9,0-.1,0-.3,0-.4,0-.1,0-.3-.1-.4.3-.3.5-.7.7-1,.2-.4.5-.7.7-1.1.5-.7.9-1.5,1.3-2.2.4.1.7.3,1.1.4.4.1.9.2,1.3.3,0,.1,0,.3,0,.4,0,.2.1.4.2.6,0,.4.2.8.2,1.3.1.9.2,1.7.3,2.6,0,.1,0,.2,0,.4,0,0,0,0,0,.1,0,0-.2.2-.2.3,0,0-.2.2-.2.3-.2.2-.3.4-.5.6-.2.2-.3.4-.5.6,0,.1-.1.2-.2.3,0,0,0,.1-.1.2-.1,0-.2,0-.4,0h-.5c-.3-.1-.6-.2-.9-.2-.3,0-.6,0-1-.1-.2,0-.5,0-.7,0,0,0,0,0,0,0-.1-.6-.2-1.2-.4-1.7Z"/>
            <path d="M49.5,231.6c0,0,0-.2,0-.2,0,0,0,0,0,0,0,0,0,0,0,0,0,0,0,0,0-.1,0-.1.1-.2.2-.3.1-.2.3-.4.5-.6.1-.2.3-.4.5-.6,0,0,.2-.2.2-.3,0,0,.1-.1.2-.2,0,0,.2,0,.3,0-.4,1.3-1.1,2.4-1.9,3.4,0-.1,0-.2,0-.3,0-.2,0-.3,0-.5,0,0,0-.2,0-.3Z"/>
            <path d="M51.3,229s0,0,0,0c0,0,0-.2,0-.3,0-.2,0-.4,0-.6,0-.4,0-.8-.1-1.2-.1-.8-.2-1.6-.4-2.3,0-.2-.1-.4-.2-.6,0-.1,0-.3-.1-.4,0,0,0,0,0,0,0-.1.1-.3.2-.4,0-.2.1-.4.2-.6,0-.2.1-.4.2-.6,0,0,0-.2,0-.3.6,1.3.9,2.8.9,4.4s-.2,2.2-.5,3.2c0,0-.1-.1-.2,0Z"/>
            <path d="M50.8,221.1c0,0,0,.2,0,.3,0,0,0,.2,0,.3,0,.2-.1.4-.2.6,0,.2-.1.4-.2.6,0,.1-.1.3-.1.4-.4,0-.8-.2-1.2-.3-.4-.1-.8-.2-1.1-.3,0,0,0,0,0,0-.7-1.2-1.6-2.4-2.6-3.5-.1-.2-.3-.3-.4-.5-.1-.1-.2-.2-.3-.3,0,0,0,0,0,0,0-.2.1-.4.2-.6,0-.1,0-.2.1-.4,0,0,0-.1,0-.2,0,0,0,0,0,0,0,0,0,0,.1,0,.2,0,.4,0,.6-.1l1.1-.3c1.8,1.1,3.3,2.6,4.2,4.5Z"/>
            <path d="M44.7,216.8c0,0-.1-.1-.2-.2-.3-.3-.6-.5-.9-.8-.1-.1-.3-.3-.4-.4,1,.2,2,.5,3,1-.2,0-.5.1-.7.2-.2,0-.4.1-.5.2,0,0-.2,0-.3,0Z"/>
            <path d="M42.8,215.3c0,.1.2.2.3.3.2.2.3.3.5.5.3.3.6.6.9.9,0,0,0,0,.1,0,0,0,0,0,0,0,0,0,0,.1,0,.2,0,.1,0,.2-.1.4,0,.2-.1.4-.1.6,0,0,0,0,0,0-.8.2-1.6.5-2.4.8-.4.1-.8.3-1.2.4-.2,0-.4.2-.6.2-.2,0-.3.1-.5.2,0,0,0,0-.1,0-.5-.2-1-.3-1.5-.5-.3,0-.5-.2-.8-.3-.1,0-.3,0-.4-.1-.1,0-.2,0-.3,0,0-.1,0-.3.1-.5.1-.8.3-1.6.4-2.4,1.3-.6,2.7-.9,4.3-.9s1,0,1.5.1Z"/>
            <path d="M36.6,216.2c0,.6-.2,1.2-.3,1.8,0,.3,0,.7-.2.9-.1.3-.4.5-.7.6-.5.4-1.1.9-1.6,1.3-.3.2-.5.4-.8.7-.1.1-.3.2-.4.3-.1.1-.2.2-.4.3-.2.1-.4,0-.6-.2-.1-.1-.2-.3-.4-.3,1-2.4,2.9-4.4,5.2-5.5Z"/>
            <path d="M31.3,222c.2.2.4.5.6.6,0,.3,0,.6,0,.9,0,.3,0,.7,0,1,0,.7,0,1.3,0,2,0,0,0,0,0,0,0,0,0,.1,0,.2,0,.1,0,.3-.1.4,0,.3-.2.5-.2.8,0,.3-.1.5-.2.8,0,.1,0,.3,0,.4,0,0,0,.1,0,.2-.4-1.1-.6-2.2-.6-3.5s.3-2.7.8-3.9Z"/>
            <path d="M31.3,229.7s0,0,0,0c0-.1,0-.3.1-.4,0-.1,0-.3,0-.4,0-.3.1-.6.2-.8,0-.3.1-.5.2-.8,0-.1,0-.3.1-.4,0,0,0-.2,0-.2.3.1.6.2,1,.4.4.1.8.3,1.2.4.4.1.8.3,1.2.4.2,0,.4.1.6.2h.3c0,.1,0,.1,0,.1,0,0,0,.1.2,0,0,.1,0,.3,0,.4,0,.2,0,.4,0,.6,0,.4.1.9.2,1.3.1.8.3,1.6.5,2.5-.2,0-.4.2-.6.3-.3.1-.6.2-.9.3-.3,0-.6.2-.9.2-.1,0-.3,0-.4.1,0,0-.2,0-.3,0-1.4-1.2-2.4-2.6-3.1-4.3Z"/>
            <path d="M34.7,234.3c.1,0,.3,0,.4,0,.3,0,.6-.2.9-.3.3,0,.6-.2.9-.3.2,0,.4-.2.7-.3.1,0,.3.1.4.2.2,0,.3.1.5.2.3.1.7.2,1,.4.3.1.7.2,1,.3.2,0,.4,0,.5.1.1,0,.3,0,.4,0,0,0,0,0,.1,0,0,0,0,0,0,0,0,0,0,.1.1.2,0,0,.1.2.2.3.1.2.2.4.3.5.1.2.2.4.3.5,0,0,.1.2.2.3,0,0,0,0,0,0-.5,0-.9,0-1.4,0-2.5,0-4.8-.9-6.6-2.3Z"/>
            <path d="M43,236.4c0,0,0-.1,0-.2,0,0-.1-.2-.2-.3-.1-.2-.2-.4-.3-.6-.1-.2-.2-.4-.4-.6,0-.1-.2-.3-.3-.4.2-.1.3-.3.5-.4l.7-.6c.5-.4.9-.8,1.4-1.2.2-.2.4-.4.7-.6.2-.2.4-.4.6-.4.3,0,.5,0,.8,0,.3,0,.6,0,.9.1.3,0,.7,0,1,.1h.5c.2,0,.3.1.5.1,0,0,0,0,0,0,0,0,0,.2,0,.3,0,.2,0,.3,0,.5,0,.2,0,.3,0,.5,0,0,0,.2,0,.3-1.6,1.7-3.7,2.9-6.1,3.3Z"/>
          </g>
        </g>
      </g>
      <path class="st9" d="M117.1,93.5c-1.3-1.6-2.8-3-4.4-4.4-6.7-5.7-15.3-9.1-24.8-9.1-21.1,0-38.2,17.2-38.2,38.2s3.4,18.1,9.1,24.8c1.3,1.6,2.8,3,4.4,4.4,6.7,5.7,15.3,9.1,24.8,9.1,21.1,0,38.2-17.2,38.2-38.2s-3.4-18.1-9.1-24.8ZM55.9,118.2c0-17.7,14.4-32.1,32.1-32.1s14.8,2.7,20.4,7.3l-45.1,45.1c-4.6-5.5-7.3-12.6-7.3-20.4ZM88,150.3c-7.7,0-14.8-2.7-20.4-7.3l45.1-45.1c4.6,5.5,7.3,12.6,7.3,20.4,0,17.7-14.4,32.1-32.1,32.1Z"/>
    </g>
  </g>
</svg>